<svg width="124" height="38" viewBox="0 0 124 38" fill="none" xmlns="http://www.w3.org/2000/svg">
<path d="M58.8923 35.8146C54.261 32.8265 51.9453 31.3325 51.3337 30.1465C50.1047 27.7639 50.9736 24.8361 53.3033 23.5095C54.4628 22.8492 57.2186 22.8602 62.7302 22.8821V22.8821C68.5375 22.9051 71.4412 22.9166 72.606 23.6021C74.9476 24.9802 75.7602 27.9761 74.4357 30.3485C73.777 31.5285 71.277 33.0056 66.2772 35.9599V35.9599C65.235 36.5756 64.7139 36.8835 64.1773 37.055C63.1233 37.3918 61.9874 37.3695 60.9474 36.9915C60.418 36.799 59.9094 36.4709 58.8923 35.8146V35.8146Z" fill="#353244"/>
<rect width="124" height="32" rx="16" fill="#353244"/>
<path d="M47.692 13.045C48.6453 13.045 49.3733 13.279 49.876 13.747C50.3873 14.215 50.643 14.9127 50.643 15.84V20H49.46V19.09C49.252 19.4107 48.953 19.6577 48.563 19.831C48.1817 19.9957 47.7267 20.078 47.198 20.078C46.4267 20.078 45.807 19.8917 45.339 19.519C44.8797 19.1463 44.65 18.6567 44.65 18.05C44.65 17.4433 44.871 16.958 45.313 16.594C45.755 16.2213 46.457 16.035 47.419 16.035H49.395V15.788C49.395 15.2507 49.239 14.839 48.927 14.553C48.615 14.267 48.1557 14.124 47.549 14.124C47.1417 14.124 46.743 14.1933 46.353 14.332C45.963 14.462 45.6337 14.6397 45.365 14.865L44.845 13.929C45.2003 13.643 45.625 13.4263 46.119 13.279C46.613 13.123 47.1373 13.045 47.692 13.045ZM47.406 19.116C47.8827 19.116 48.2943 19.012 48.641 18.804C48.9877 18.5873 49.239 18.284 49.395 17.894V16.932H47.471C46.4137 16.932 45.885 17.2873 45.885 17.998C45.885 18.3447 46.0193 18.6177 46.288 18.817C46.5567 19.0163 46.9293 19.116 47.406 19.116ZM53.3425 10.354H54.5905V20H53.3425V10.354ZM61.0164 13.045C61.6837 13.045 62.2817 13.1923 62.8104 13.487C63.3391 13.7817 63.7507 14.1933 64.0454 14.722C64.3487 15.2507 64.5004 15.8617 64.5004 16.555C64.5004 17.2483 64.3487 17.8637 64.0454 18.401C63.7507 18.9297 63.3391 19.3413 62.8104 19.636C62.2817 19.9307 61.6837 20.078 61.0164 20.078C60.5224 20.078 60.0674 19.9827 59.6514 19.792C59.2441 19.6013 58.8974 19.324 58.6114 18.96V22.522H57.3634V13.11H58.5594V14.202C58.8367 13.8207 59.1877 13.5347 59.6124 13.344C60.0371 13.1447 60.5051 13.045 61.0164 13.045ZM60.9124 18.986C61.3544 18.986 61.7487 18.8863 62.0954 18.687C62.4507 18.479 62.7281 18.193 62.9274 17.829C63.1354 17.4563 63.2394 17.0317 63.2394 16.555C63.2394 16.0783 63.1354 15.658 62.9274 15.294C62.7281 14.9213 62.4507 14.6353 62.0954 14.436C61.7487 14.2367 61.3544 14.137 60.9124 14.137C60.4791 14.137 60.0847 14.241 59.7294 14.449C59.3827 14.6483 59.1054 14.93 58.8974 15.294C58.6981 15.658 58.5984 16.0783 58.5984 16.555C58.5984 17.0317 58.6981 17.4563 58.8974 17.829C59.0967 18.193 59.3741 18.479 59.7294 18.687C60.0847 18.8863 60.4791 18.986 60.9124 18.986ZM70.2937 13.045C71.1691 13.045 71.8624 13.3007 72.3737 13.812C72.8937 14.3147 73.1537 15.0557 73.1537 16.035V20H71.9057V16.178C71.9057 15.5107 71.7454 15.008 71.4247 14.67C71.1041 14.332 70.6447 14.163 70.0467 14.163C69.3707 14.163 68.8377 14.3623 68.4477 14.761C68.0577 15.151 67.8627 15.7143 67.8627 16.451V20H66.6147V10.354H67.8627V14.085C68.1227 13.7557 68.4607 13.5 68.8767 13.318C69.3014 13.136 69.7737 13.045 70.2937 13.045ZM78.3624 13.045C79.3157 13.045 80.0437 13.279 80.5464 13.747C81.0577 14.215 81.3134 14.9127 81.3134 15.84V20H80.1304V19.09C79.9224 19.4107 79.6234 19.6577 79.2334 19.831C78.852 19.9957 78.397 20.078 77.8684 20.078C77.097 20.078 76.4774 19.8917 76.0094 19.519C75.55 19.1463 75.3204 18.6567 75.3204 18.05C75.3204 17.4433 75.5414 16.958 75.9834 16.594C76.4254 16.2213 77.1274 16.035 78.0894 16.035H80.0654V15.788C80.0654 15.2507 79.9094 14.839 79.5974 14.553C79.2854 14.267 78.826 14.124 78.2194 14.124C77.812 14.124 77.4134 14.1933 77.0234 14.332C76.6334 14.462 76.304 14.6397 76.0354 14.865L75.5154 13.929C75.8707 13.643 76.2954 13.4263 76.7894 13.279C77.2834 13.123 77.8077 13.045 78.3624 13.045ZM78.0764 19.116C78.553 19.116 78.9647 19.012 79.3114 18.804C79.658 18.5873 79.9094 18.284 80.0654 17.894V16.932H78.1414C77.084 16.932 76.5554 17.2873 76.5554 17.998C76.5554 18.3447 76.6897 18.6177 76.9584 18.817C77.227 19.0163 77.5997 19.116 78.0764 19.116ZM89.1219 18.973V20H83.3499V19.194L87.4189 14.137H83.4279V13.11H89.0179V13.929L84.9489 18.973H89.1219ZM97.3076 16.594C97.3076 16.6893 97.299 16.815 97.2816 16.971H91.6916C91.7696 17.5777 92.034 18.0673 92.4846 18.44C92.944 18.804 93.5116 18.986 94.1876 18.986C95.011 18.986 95.674 18.7087 96.1766 18.154L96.8656 18.96C96.5536 19.324 96.1636 19.6013 95.6956 19.792C95.2363 19.9827 94.7206 20.078 94.1486 20.078C93.4206 20.078 92.775 19.9307 92.2116 19.636C91.6483 19.3327 91.2106 18.9123 90.8986 18.375C90.5953 17.8377 90.4436 17.231 90.4436 16.555C90.4436 15.8877 90.591 15.2853 90.8856 14.748C91.189 14.2107 91.6006 13.7947 92.1206 13.5C92.6493 13.1967 93.243 13.045 93.9016 13.045C94.5603 13.045 95.1453 13.1967 95.6566 13.5C96.1766 13.7947 96.5796 14.2107 96.8656 14.748C97.1603 15.2853 97.3076 15.9007 97.3076 16.594ZM93.9016 14.098C93.3036 14.098 92.801 14.28 92.3936 14.644C91.995 15.008 91.761 15.4847 91.6916 16.074H96.1116C96.0423 15.4933 95.804 15.021 95.3966 14.657C94.998 14.2843 94.4996 14.098 93.9016 14.098ZM103.305 19.597C103.123 19.753 102.897 19.8743 102.629 19.961C102.36 20.039 102.083 20.078 101.797 20.078C101.103 20.078 100.566 19.8917 100.185 19.519C99.8032 19.1463 99.6126 18.6133 99.6126 17.92V14.137H98.4426V13.11H99.6126V11.602H100.861V13.11H102.837V14.137H100.861V17.868C100.861 18.2407 100.952 18.5267 101.134 18.726C101.324 18.9253 101.593 19.025 101.94 19.025C102.321 19.025 102.646 18.9167 102.915 18.7L103.305 19.597Z" fill="white"/>
<circle cx="16" cy="16" r="16" fill="#292735"/>
<path d="M10.7331 14.7807L7.42191 15.9449L10.7331 17.0994V18.2922L6 16.5651V15.3246L10.7331 13.5975V14.7807Z" fill="white"/>
<path d="M16.6062 18.0153C16.4471 18.374 16.2244 18.6298 15.938 18.7824C15.6516 18.9275 15.3175 19 14.9357 19C14.5777 19 14.2397 18.9351 13.9215 18.8053C13.6112 18.6756 13.3368 18.4847 13.0982 18.2328C12.8595 17.9809 12.6686 17.6756 12.5254 17.3168C12.3902 16.958 12.3226 16.5496 12.3226 16.0916V15.9084C12.3226 15.458 12.3902 15.0534 12.5254 14.6947C12.6607 14.3359 12.8436 14.0305 13.0743 13.7786C13.305 13.5267 13.5715 13.3359 13.8737 13.2061C14.184 13.0687 14.5141 13 14.8641 13C15.2857 13 15.6238 13.0687 15.8783 13.2061C16.1408 13.3435 16.3477 13.5573 16.4988 13.8473H16.7136V13.1603H18.217V17.1221C18.217 17.3511 18.3244 17.4656 18.5392 17.4656H18.7659V18.8397H17.7397C17.4693 18.8397 17.2466 18.7634 17.0716 18.6107C16.9045 18.458 16.821 18.2595 16.821 18.0153H16.6062ZM15.2698 17.626C15.7073 17.626 16.0573 17.4885 16.3198 17.2137C16.5823 16.9313 16.7136 16.5496 16.7136 16.0687V15.9313C16.7136 15.4504 16.5823 15.0725 16.3198 14.7977C16.0573 14.5153 15.7073 14.374 15.2698 14.374C14.8323 14.374 14.4823 14.5153 14.2198 14.7977C13.9573 15.0725 13.826 15.4504 13.826 15.9313V16.0687C13.826 16.5496 13.9573 16.9313 14.2198 17.2137C14.4823 17.4885 14.8323 17.626 15.2698 17.626Z" fill="white"/>
<path d="M25 15.3197V16.5607L20.2725 18.2887V17.0953L23.5798 15.9402L20.2725 14.7755V13.5917L25 15.3197Z" fill="white"/>
</svg>
