<svg  viewBox="0 0 212 32" fill="none" xmlns="http://www.w3.org/2000/svg">
<path fill-rule="evenodd" clip-rule="evenodd" d="M31.814 22.3289C31.3369 23.443 30.6689 24.237 29.81 24.7111C28.9511 25.1615 27.9491 25.3867 26.804 25.3867C25.7304 25.3867 24.7164 25.1852 23.7621 24.7822C22.8317 24.3793 22.0086 23.7867 21.2929 23.0044C20.5771 22.2222 20.0046 21.2741 19.5751 20.16C19.1695 19.0459 18.9668 17.7778 18.9668 16.3556V15.7867C18.9668 14.3881 19.1695 13.1319 19.5751 12.0178C19.9807 10.9037 20.5294 9.95556 21.2213 9.17333C21.9132 8.39111 22.7124 7.79852 23.619 7.39556C24.5494 6.96889 25.5395 6.75555 26.5892 6.75555C27.8537 6.75555 28.8676 6.96889 29.6311 7.39556C30.4184 7.82222 31.0387 8.48593 31.492 9.38667H32.1361V7.25333H36.6452V19.5556C36.6452 20.2667 36.9673 20.6222 37.6114 20.6222H38.2914V24.8889H35.2137C34.4026 24.8889 33.7346 24.6519 33.2097 24.1778C32.7087 23.7037 32.4582 23.0874 32.4582 22.3289H31.814ZM27.806 21.12C29.1181 21.12 30.1679 20.6933 30.9552 19.84C31.7425 18.963 32.1361 17.7778 32.1361 16.2844V15.8578C32.1361 14.3644 31.7425 13.1911 30.9552 12.3378C30.1679 11.4607 29.1181 11.0222 27.806 11.0222C26.4938 11.0222 25.4441 11.4607 24.6568 12.3378C23.8695 13.1911 23.4758 14.3644 23.4758 15.8578V16.2844C23.4758 17.7778 23.8695 18.963 24.6568 19.84C25.4441 20.6933 26.4938 21.12 27.806 21.12Z" fill="white"/>
<path d="M42.4893 20.6222H48.7161V4.26667H42.704V0H53.2252V20.6222H59.0225V24.8889H42.4893V20.6222Z" fill="white"/>
<path fill-rule="evenodd" clip-rule="evenodd" d="M68.4453 32H63.9362V7.25333H68.4453V9.81333H69.0894C69.5666 8.84148 70.2584 8.09481 71.165 7.57333C72.0716 7.02815 73.2287 6.75555 74.6363 6.75555C75.686 6.75555 76.6761 6.95704 77.6066 7.36C78.5609 7.76296 79.3839 8.35556 80.0758 9.13778C80.7915 9.8963 81.3522 10.8326 81.7578 11.9467C82.1872 13.0607 82.4019 14.3289 82.4019 15.7511V16.3911C82.4019 17.837 82.1991 19.117 81.7936 20.2311C81.388 21.3452 80.8392 22.2933 80.1474 23.0756C79.4555 23.8341 78.6324 24.4148 77.6781 24.8178C76.7477 25.197 75.7337 25.3867 74.6363 25.3867C73.8251 25.3867 73.1213 25.3037 72.5249 25.1378C71.9285 24.9719 71.4036 24.7467 70.9503 24.4622C70.5209 24.1778 70.1511 23.8578 69.8409 23.5022C69.5546 23.123 69.3041 22.7319 69.0894 22.3289H68.4453V32ZM73.1691 21.12C74.5766 21.12 75.7099 20.6933 76.5687 19.84C77.4515 18.963 77.8928 17.7778 77.8928 16.2844V15.8578C77.8928 14.3644 77.4515 13.1911 76.5687 12.3378C75.7099 11.4607 74.5766 11.0222 73.1691 11.0222C71.7615 11.0222 70.6163 11.4726 69.7336 12.3733C68.8747 13.2504 68.4453 14.4119 68.4453 15.8578V16.2844C68.4453 17.7304 68.8747 18.9037 69.7336 19.8044C70.6163 20.6815 71.7615 21.12 73.1691 21.12Z" fill="white"/>
<path d="M91.7173 24.8889H87.2082V0H91.7173V10.0978H92.3614C92.8147 9.03111 93.4827 8.21333 94.3655 7.64445C95.2482 7.05185 96.3337 6.75555 97.622 6.75555C98.5047 6.75555 99.3159 6.89778 100.055 7.18222C100.795 7.46667 101.439 7.89333 101.988 8.46222C102.537 9.03111 102.966 9.76593 103.276 10.6667C103.586 11.5437 103.741 12.5867 103.741 13.7956V24.8889H99.2324V14.8622C99.2324 13.6059 98.9222 12.6222 98.302 11.9111C97.7055 11.1763 96.8347 10.8089 95.6896 10.8089C94.3535 10.8089 93.3515 11.2593 92.6835 12.16C92.0394 13.037 91.7173 14.2222 91.7173 15.7156V24.8889Z" fill="white"/>
<path fill-rule="evenodd" clip-rule="evenodd" d="M120.894 22.3289C120.417 23.443 119.749 24.237 118.89 24.7111C118.031 25.1615 117.029 25.3867 115.884 25.3867C114.81 25.3867 113.796 25.1852 112.842 24.7822C111.912 24.3793 111.089 23.7867 110.373 23.0044C109.657 22.2222 109.085 21.2741 108.655 20.16C108.25 19.0459 108.047 17.7778 108.047 16.3556V15.7867C108.047 14.3881 108.25 13.1319 108.655 12.0178C109.061 10.9037 109.609 9.95556 110.301 9.17333C110.993 8.39111 111.792 7.79852 112.699 7.39556C113.629 6.96889 114.619 6.75555 115.669 6.75555C116.934 6.75555 117.948 6.96889 118.711 7.39556C119.498 7.82222 120.119 8.48593 120.572 9.38667H121.216V7.25333H125.725V19.5556C125.725 20.2667 126.047 20.6222 126.691 20.6222H127.371V24.8889H124.294C123.483 24.8889 122.815 24.6519 122.29 24.1778C121.789 23.7037 121.538 23.0874 121.538 22.3289H120.894ZM116.886 21.12C118.198 21.12 119.248 20.6933 120.035 19.84C120.822 18.963 121.216 17.7778 121.216 16.2844V15.8578C121.216 14.3644 120.822 13.1911 120.035 12.3378C119.248 11.4607 118.198 11.0222 116.886 11.0222C115.574 11.0222 114.524 11.4607 113.737 12.3378C112.949 13.1911 112.556 14.3644 112.556 15.8578V16.2844C112.556 17.7778 112.949 18.963 113.737 19.84C114.524 20.6933 115.574 21.12 116.886 21.12Z" fill="white"/>
<path d="M147.602 20.6222V24.8889H132.142V17.4222L143.307 12.0178V11.3778H132.357V7.25333H147.172V14.5067L136.007 19.9822V20.6222H147.602Z" fill="white"/>
<path fill-rule="evenodd" clip-rule="evenodd" d="M157.919 17.5289C157.943 18.0504 158.062 18.5363 158.277 18.9867C158.515 19.4133 158.825 19.7926 159.207 20.1244C159.613 20.4326 160.066 20.6815 160.567 20.8711C161.092 21.037 161.641 21.12 162.213 21.12C163.335 21.12 164.193 20.9304 164.79 20.5511C165.386 20.1481 165.816 19.6741 166.078 19.1289L169.943 21.2622C169.728 21.7126 169.43 22.1867 169.048 22.6844C168.667 23.1585 168.166 23.597 167.545 24C166.949 24.403 166.209 24.7348 165.327 24.9956C164.468 25.2563 163.454 25.3867 162.285 25.3867C160.949 25.3867 159.732 25.1733 158.635 24.7467C157.537 24.32 156.583 23.7037 155.772 22.8978C154.984 22.0919 154.364 21.1081 153.911 19.9467C153.481 18.7852 153.267 17.4696 153.267 16V15.7867C153.267 14.4356 153.493 13.203 153.947 12.0889C154.424 10.9748 155.068 10.0267 155.879 9.24444C156.69 8.46222 157.633 7.85778 158.706 7.43111C159.804 6.98074 160.973 6.75555 162.213 6.75555C163.74 6.75555 165.052 7.02815 166.15 7.57333C167.247 8.09481 168.154 8.77037 168.87 9.6C169.585 10.4059 170.11 11.3067 170.444 12.3022C170.778 13.2741 170.945 14.2222 170.945 15.1467V17.5289H157.919ZM162.177 10.8089C161.032 10.8089 160.102 11.1052 159.386 11.6978C158.67 12.2667 158.205 12.9304 157.99 13.6889H166.364C166.221 12.8593 165.768 12.1719 165.005 11.6267C164.265 11.0815 163.323 10.8089 162.177 10.8089Z" fill="white"/>
<path d="M175.716 7.25333H180.976V0H185.485V7.25333H191.891V11.52H185.485V19.5556C185.485 20.2667 185.807 20.6222 186.451 20.6222H191.247V24.8889H183.732C182.921 24.8889 182.253 24.6281 181.728 24.1067C181.227 23.5852 180.976 22.9215 180.976 22.1156V11.52H175.716V7.25333Z" fill="white"/>
<path d="M14.1952 12.237L4.26454 15.8519L14.1952 19.437V23.1407L0 17.7778V13.9259L14.1952 8.56296V12.237Z" fill="white"/>
<path d="M197.272 23.1407L211.467 17.7778V13.9259L197.272 8.56296V12.237L207.203 15.8519L197.272 19.437V23.1407Z" fill="white"/>
</svg>
