<svg width="123" height="32" viewBox="0 0 123 32" fill="none" xmlns="http://www.w3.org/2000/svg">
<path fill-rule="evenodd" clip-rule="evenodd" d="M48.9406 11.009C49.1176 11.7719 49.9339 13.8637 50.2451 14.8082L50.5121 15.6077L51.0736 17.1792H46.7328C46.8426 16.9488 46.8854 16.7215 46.9906 16.4469L47.8268 14.085C47.9793 13.6501 48.7514 11.2272 48.9406 11.009ZM41.1729 23.8057H44.377L45.5976 20.2262H52.224L53.4447 23.8057H56.6488C56.9265 23.8057 56.8624 23.6714 56.7754 23.4578C56.6884 23.2442 56.6457 23.1221 56.5649 22.9009C56.4352 22.5515 56.2795 22.1929 56.1453 21.7962L50.4648 6.51562H47.3416C47.2525 6.88789 47.1331 7.25224 46.9845 7.60503L41.0844 23.4166C41.0157 23.5951 40.825 23.8057 41.1729 23.8057Z" fill="#E8E8E8"/>
<path fill-rule="evenodd" clip-rule="evenodd" d="M64.479 20.8351H63.9465C62.5032 20.8351 61.1285 19.3933 61.1285 17.9362C61.1285 16.7796 61.0888 15.8809 62.0226 14.9456C62.3151 14.6568 62.6619 14.4285 63.0429 14.274C63.4239 14.1195 63.8317 14.0418 64.2428 14.0453C64.654 14.0489 65.0604 14.1336 65.4387 14.2947C65.817 14.4557 66.1597 14.6899 66.4473 14.9838C67.6298 16.1663 67.6557 18.725 66.4244 19.9517L66.2581 20.089C65.7836 20.5117 65.245 20.8305 64.4851 20.8305L64.479 20.8351ZM61.0522 12.3808C60.953 11.9551 60.6265 11.5401 60.5944 11.1602H58.1532V28.1466H61.3573V22.7393C62.851 23.7387 63.2539 23.8821 65.0192 23.8821C67.8693 23.8867 70.4906 20.8138 70.4906 17.9362C70.4906 16.183 70.3945 15.1669 69.3783 13.6396L68.7527 12.8187C68.6526 12.6898 68.5288 12.581 68.3881 12.4983C68.2019 12.361 68.1607 12.2725 67.9792 12.1458C66.2016 10.9115 64.5645 10.672 62.5581 11.4516C61.6045 11.8331 61.5725 12.0314 61.0522 12.3808Z" fill="#E8E8E8"/>
<path fill-rule="evenodd" clip-rule="evenodd" d="M78.4246 14.0561C78.8023 14.0629 79.177 14.1246 79.5369 14.2392C79.6943 14.3026 79.8472 14.3765 79.9946 14.4605C80.2571 14.5963 80.1899 14.5993 80.3867 14.7549C80.8552 15.1272 81.3373 15.8627 81.3907 16.4928H75.4478C75.753 15.1562 76.7783 14.0516 78.4185 14.0516L78.4246 14.0561ZM72.1018 17.4128C72.1165 17.8713 72.1675 18.328 72.2544 18.7784C72.3395 19.1751 72.4621 19.5629 72.6206 19.9365C73.443 22.0512 75.8247 23.8867 77.9608 23.8867C79.8131 23.8867 80.5897 23.7341 82.1368 22.5776C82.5705 22.2529 82.9505 21.8621 83.2628 21.4195C83.4978 21.096 83.9616 20.3225 84.0547 19.9258C83.0538 19.9258 81.9964 19.8922 81.0032 19.9258C80.4508 19.941 80.817 20.0646 80.0434 20.4903C79.0319 21.0472 77.3795 20.9953 76.4564 20.2157C76.2549 20.0323 76.0839 19.8181 75.9498 19.581C75.7764 19.3173 75.6576 19.0216 75.6004 18.7113H84.3583L84.4346 16.9597C84.4346 14.9213 83.3483 13.3421 82.0941 12.2939C80.4401 10.9085 77.8219 10.6155 75.8781 11.6027C74.8359 12.098 73.9416 12.8576 73.2843 13.8059C72.5992 14.8267 72.0957 16.1236 72.0957 17.4083L72.1018 17.4128Z" fill="#E8E8E8"/>
<path fill-rule="evenodd" clip-rule="evenodd" d="M113.379 12.3047C113.292 11.9278 113.009 11.5418 112.921 11.1619H110.56V23.806H113.531C113.887 23.806 113.76 23.2155 113.76 22.5106V17.8646C113.76 16.3297 113.623 15.4142 114.729 14.569C115.275 14.1649 115.955 13.987 116.629 14.0723C117.302 14.1576 117.917 14.4994 118.345 15.0267C118.896 15.724 118.862 16.493 118.862 17.7075V23.1926C118.853 24.0348 118.592 23.8029 122.066 23.8029V16.1893C122.071 15.1587 121.792 14.1467 121.259 13.2644C119.668 10.6447 116.096 10.3777 113.795 12.1064C113.563 12.2772 113.705 12.2772 113.379 12.3047Z" fill="#E8E8E8"/>
<path fill-rule="evenodd" clip-rule="evenodd" d="M92.5089 14.5889C92.5089 15.6859 92.5273 16.252 93.3649 17.0835C95.3667 19.067 98.9065 18.5254 98.9065 19.9215C98.9065 20.5669 98.3832 21.0277 97.872 21.1711C97.4055 21.3198 96.9043 21.3198 96.4378 21.1711C95.3515 20.8751 95.4613 19.7674 95.0982 19.7674H92.1992C92.4067 22.2574 94.3216 23.8869 96.9291 23.8869C97.9758 23.8869 98.5266 23.9419 99.5427 23.5299C101.526 22.7228 102.622 20.8461 101.891 18.7726C101.697 18.2938 101.39 17.8688 100.997 17.5336C99.6602 16.548 99.291 16.4992 97.5394 16.0414C96.5507 15.7836 95.7085 15.5623 95.7085 14.8208C95.7085 13.2569 98.5327 13.295 98.9126 14.8971H101.964C101.952 14.3219 101.68 13.6765 101.458 13.2722C100.938 12.3141 100.06 11.6009 99.0164 11.2887C97.277 10.7653 95.4338 10.9179 93.9554 11.9997C93.5767 12.2788 93.2516 12.6241 92.9957 13.0189C92.7805 13.3729 92.5089 14.061 92.5089 14.5889Z" fill="#E8E8E8"/>
<path fill-rule="evenodd" clip-rule="evenodd" d="M86.7201 23.5814C86.7201 23.7568 86.7736 23.8102 86.949 23.8102H89.9197V6.51562H86.7156L86.7201 23.5814Z" fill="#E8E8E8"/>
<path fill-rule="evenodd" clip-rule="evenodd" d="M104.39 23.8062H107.361C107.536 23.8062 107.59 23.7528 107.59 23.5773V11.1621H104.386L104.39 23.8062Z" fill="#E8E8E8"/>
<path fill-rule="evenodd" clip-rule="evenodd" d="M104.239 7.73498C104.239 9.01511 105.786 10.2556 107.211 9.10818C108.292 8.23849 108.009 5.9834 105.914 5.9834C105.365 5.9834 105.08 6.24736 104.79 6.53573C104.619 6.70814 104.518 6.75696 104.418 6.99346C104.312 7.22724 104.252 7.47879 104.239 7.73498Z" fill="#E8E8E8"/>
<path d="M25.6253 0H6.37467C2.85404 0 0 2.85404 0 6.37467V25.6253C0 29.146 2.85404 32 6.37467 32H25.6253C29.146 32 32 29.146 32 25.6253V6.37467C32 2.85404 29.146 0 25.6253 0Z" fill="#8C8C8C"/>
<path d="M26.7574 23.0807C28.0517 23.0807 29.101 22.0315 29.101 20.7371C29.101 19.4428 28.0517 18.3936 26.7574 18.3936C25.4631 18.3936 24.4138 19.4428 24.4138 20.7371C24.4138 22.0315 25.4631 23.0807 26.7574 23.0807Z" fill="#E8E8E8"/>
<path d="M3.3903 25.7564C4.02904 25.7564 4.54683 25.2386 4.54683 24.5999C4.54683 23.9612 4.02904 23.4434 3.3903 23.4434C2.75156 23.4434 2.23376 23.9612 2.23376 24.5999C2.23376 25.2386 2.75156 25.7564 3.3903 25.7564Z" fill="#E8E8E8"/>
<path d="M6.4174 26.7271C7.05614 26.7271 7.57393 26.2093 7.57393 25.5706C7.57393 24.9319 7.05614 24.4141 6.4174 24.4141C5.77866 24.4141 5.26086 24.9319 5.26086 25.5706C5.26086 26.2093 5.77866 26.7271 6.4174 26.7271Z" fill="#E8E8E8"/>
<path d="M4.09062 28.5123C4.72935 28.5123 5.24715 27.9945 5.24715 27.3558C5.24715 26.717 4.72935 26.1992 4.09062 26.1992C3.45188 26.1992 2.93408 26.717 2.93408 27.3558C2.93408 27.9945 3.45188 28.5123 4.09062 28.5123Z" fill="#E8E8E8"/>
<path d="M6.70268 29.69C7.34141 29.69 7.85921 29.1722 7.85921 28.5335C7.85921 27.8948 7.34141 27.377 6.70268 27.377C6.06394 27.377 5.54614 27.8948 5.54614 28.5335C5.54614 29.1722 6.06394 29.69 6.70268 29.69Z" fill="#E8E8E8"/>
<path fill-rule="evenodd" clip-rule="evenodd" d="M29.1971 9.34884C28.2753 8.958 27.2841 8.75717 26.2829 8.75837H6.20984L21.4569 1.32176C22.2757 0.921567 23.22 0.862949 24.0821 1.15879C24.9442 1.45464 25.6534 2.08073 26.054 2.89941L29.1971 9.34884Z" fill="white"/>
<path fill-rule="evenodd" clip-rule="evenodd" d="M29.8365 9.65515C29.629 9.54377 29.4154 9.44002 29.1972 9.35C28.2754 8.95916 27.2842 8.75833 26.2829 8.75952H6.20532L24.9067 4.09524C25.7913 3.87474 26.7272 4.01465 27.5087 4.48419C28.2901 4.95374 28.853 5.71447 29.0736 6.59903L29.8365 9.65515Z" fill="#EEEEEE"/>
<path d="M32.0001 11.3519V14.8612C31.6979 13.5711 30.9688 12.4209 29.9312 11.597C28.8935 10.7732 27.608 10.3239 26.283 10.322H5.06562C4.95596 10.3268 4.84647 10.3093 4.74376 10.2706C4.64104 10.2319 4.54722 10.1728 4.46794 10.0969C4.38867 10.021 4.32558 9.9298 4.28248 9.82886C4.23938 9.72791 4.21716 9.61929 4.21716 9.50953C4.21716 9.39976 4.23938 9.29114 4.28248 9.19019C4.32558 9.08925 4.38867 8.99807 4.46794 8.92216C4.54722 8.84625 4.64104 8.78717 4.74376 8.74848C4.84647 8.70979 4.95596 8.6923 5.06562 8.69705H26.283C27.3718 8.69659 28.4475 8.93394 29.435 9.3925C30.4225 9.85106 31.2979 10.5198 32.0001 11.3519Z" fill="#E8E8E8"/>
</svg>
