<svg width="126" height="36" viewBox="0 0 126 36" fill="none" xmlns="http://www.w3.org/2000/svg">
<path fill-rule="evenodd" clip-rule="evenodd" d="M27.5902 23.5572C26.8361 25.2288 26.4751 25.9747 25.5045 27.4519C24.1494 29.5148 22.2404 32.083 19.8748 32.1046C17.7722 32.124 17.2325 30.7362 14.3795 30.752C11.5267 30.7675 10.9308 32.1289 8.82802 32.1098C6.46225 32.0879 4.65308 29.7684 3.29827 27.7064C-0.490059 21.9395 -0.885846 15.1715 1.45017 11.5736C3.11079 9.01659 5.72943 7.51976 8.1926 7.51976C10.7001 7.51976 12.2765 8.89508 14.3497 8.89508C16.3606 8.89508 17.5866 7.51758 20.4853 7.51758C22.6767 7.51758 24.9986 8.7105 26.6531 10.7744C21.2326 13.7448 22.1129 21.4875 27.5902 23.5572" fill="white"/>
<path fill-rule="evenodd" clip-rule="evenodd" d="M18.287 5.21295C19.3396 3.86111 20.1402 1.95117 19.8499 0C18.1297 0.118501 16.1165 1.21314 14.9411 2.64033C13.8745 3.9362 12.994 5.85788 13.337 7.72523C15.2152 7.78339 17.1585 6.66145 18.287 5.21295Z" fill="white"/>
<path fill-rule="evenodd" clip-rule="evenodd" d="M124.906 26.2631H117.29C117.32 27.2957 117.688 28.2011 118.396 28.7952C119.036 29.3292 119.866 29.5728 120.886 29.5728C121.938 29.584 122.983 29.3949 123.965 29.0155L124.365 30.775C123.288 31.249 122.007 31.4755 120.531 31.4755C118.764 31.4755 117.374 30.9552 116.362 29.9145C115.353 28.873 114.846 27.4747 114.843 25.7198C114.843 23.9929 115.316 22.5619 116.253 21.413C117.245 20.1926 118.578 19.5825 120.251 19.5827C121.901 19.5827 123.147 20.1927 123.988 21.4127C124.66 22.3872 124.999 23.6352 124.999 25.0615C125.004 25.464 124.973 25.8662 124.906 26.2631ZM114.084 22.0721C113.814 22.0225 113.539 22.0009 113.265 22.0077C112.372 22.0077 111.674 22.3441 111.188 23.0167C110.763 23.6134 110.544 24.3544 110.544 25.2709V31.131H108.036V23.433C108.036 22.1244 107.982 20.9527 107.937 19.7726H110.145L110.24 22.1328H110.309C110.549 21.4059 110.989 20.7614 111.579 20.2737C112.113 19.8684 112.763 19.6454 113.434 19.6376C113.651 19.6264 113.868 19.6318 114.084 19.6539V22.0721ZM104.906 29.7869C103.853 30.9435 102.459 31.5221 100.723 31.5225C99.0434 31.5225 97.7055 30.9662 96.7095 29.8536C95.7159 28.7443 95.2205 27.3362 95.2205 25.6459C95.2205 23.8771 95.7331 22.4283 96.7584 21.2992C97.7863 20.1665 99.1653 19.6099 100.904 19.6099C102.587 19.6099 103.934 20.1604 104.952 21.2784C105.921 22.3535 106.407 23.7526 106.407 25.4587C106.407 27.2191 105.909 28.6551 104.906 29.7869ZM94.4654 21.8378H91.8103V27.2949C91.8103 28.7041 92.2475 29.4028 93.235 29.4028C93.6041 29.4126 93.9729 29.3754 94.3325 29.2921L94.3897 31.2149C93.7507 31.424 93.08 31.52 92.408 31.4984C91.4102 31.4984 90.5944 31.1968 90.032 30.5812C89.4627 29.9731 89.1552 28.9453 89.1552 27.5036V21.8378H87.5327V19.7726H89.1552V17.7493L91.8103 16.9969V19.7726H94.4654V21.8378ZM85.543 30.1106C84.5066 31.0365 83.0677 31.4985 81.2265 31.4966C79.5183 31.4966 78.1497 31.168 77.121 30.5108L77.7106 28.3959C78.8188 29.0516 80.0848 29.393 81.3724 29.3834C82.3324 29.3834 83.0748 29.165 83.6081 28.7373C83.8676 28.5309 84.075 28.2664 84.2133 27.9651C84.3517 27.6637 84.4173 27.3341 84.4047 27.0027C84.4103 26.703 84.3551 26.4053 84.2424 26.1275C84.1297 25.8497 83.9618 25.5977 83.7489 25.3866C83.3062 24.9488 82.5834 24.5443 81.5637 24.1646C78.793 23.1334 77.4068 21.6223 77.405 19.6314C77.389 19.0218 77.5127 18.4166 77.7667 17.8621C78.0206 17.3077 78.3981 16.8187 78.8702 16.4327C79.8496 15.6042 81.1468 15.1891 82.7618 15.1875C84.2024 15.1875 85.4017 15.4377 86.3596 15.9382L85.719 18.0076C84.7834 17.5118 83.7376 17.2607 82.6789 17.2776C81.784 17.2776 81.0824 17.5054 80.5775 17.9338C80.3756 18.1144 80.2146 18.3361 80.1053 18.584C79.9959 18.8319 79.9408 19.1002 79.9436 19.3711C79.939 19.6686 80.0021 19.9633 80.1282 20.2327C80.2543 20.5022 80.4401 20.7395 80.6714 20.9266C81.0958 21.301 81.8628 21.7069 82.9724 22.1442C84.3403 22.6887 85.3395 23.335 85.9844 24.0737C86.625 24.8096 86.9461 25.725 86.9478 26.8199C86.9478 28.1691 86.4764 29.269 85.543 30.1106ZM70.8767 30.022C70.428 30.5077 69.8812 30.8927 69.2727 31.1513C68.6641 31.41 68.0076 31.5365 67.3465 31.5225C65.8347 31.5225 64.8168 30.9831 64.0793 29.8976V35.9989H61.5717V23.5937C61.5717 22.3726 61.525 21.2477 61.4639 19.7726H63.6908L63.8377 21.6903H63.8813C64.7333 20.3626 66.0136 19.6304 67.7371 19.6304C68.3833 19.6188 69.0235 19.7558 69.6084 20.0308C70.1933 20.3058 70.7072 20.7115 71.1105 21.2165C72.0137 22.2795 72.4647 23.6802 72.4633 25.4185C72.4633 27.3668 71.9356 28.8913 70.8767 30.022H70.8767ZM58.3267 30.022C57.8795 30.5075 57.3342 30.8923 56.727 31.151C56.1197 31.4097 55.4644 31.5363 54.8046 31.5225C53.2884 31.5225 52.2788 30.9831 51.5413 29.8976V35.9989H49.0337V23.5937C49.0337 22.3726 48.9756 21.2477 48.9112 19.7726H51.1442L51.2844 21.6903H51.3287C52.1793 20.3626 53.462 19.6304 55.1881 19.6304C56.5355 19.6304 57.6568 20.1485 58.5632 21.2165C59.4611 22.2795 59.9111 23.6802 59.9132 25.4185C59.9132 27.3668 59.3856 28.8913 58.3267 30.022H58.3267ZM44.752 31.131L43.2727 26.5581H38.1239L36.7118 31.131H34.082L39.1779 15.3472H42.3308L47.4572 31.131H44.752ZM120.063 21.3422C119.235 21.3422 118.561 21.7667 118.042 22.452C117.589 23.0397 117.327 23.7519 117.29 24.493H122.578C122.591 23.6079 122.431 23.025 122.086 22.4735C121.881 22.1218 121.584 21.8315 121.229 21.6326C120.873 21.4337 120.471 21.3334 120.063 21.3422H120.063ZM40.685 17.5599H40.6407C40.481 18.2975 40.2338 19.2792 39.8859 20.5972L38.5694 24.788H42.8222L41.4883 20.5972C41.344 20.1722 41.0747 19.035 40.685 17.5599H40.685ZM66.9153 21.6246C66.2921 21.623 65.6887 21.8431 65.213 22.2456C64.7018 22.663 64.346 23.2405 64.2029 23.8848C64.1319 24.1382 64.0904 24.399 64.0793 24.662V26.563C64.0592 27.338 64.3349 28.0915 64.8502 28.6706C65.0988 28.9496 65.4055 29.1707 65.7488 29.3184C66.0921 29.466 66.4636 29.5365 66.8371 29.5249C67.798 29.5249 68.5433 29.1589 69.0766 28.4207C69.6105 27.6837 69.8781 26.711 69.8794 25.5026C69.8794 24.393 69.6273 23.4753 69.1276 22.7564C68.8812 22.3994 68.5502 22.1092 68.1641 21.9116C67.778 21.7141 67.3489 21.6155 66.9153 21.6246H66.9153ZM100.811 21.4666C99.7956 21.4666 99.0193 21.9174 98.4895 22.8252C98.0301 23.5722 97.8052 24.4843 97.8052 25.5627C97.8052 26.614 98.0301 27.5102 98.4895 28.259C99.0322 29.165 99.7999 29.6173 100.793 29.6159C101.758 29.6159 102.521 29.1589 103.066 28.2308C103.539 27.4727 103.776 26.563 103.776 25.5191C103.776 24.4739 103.549 23.5722 103.097 22.8252C102.557 21.9174 101.8 21.4666 100.811 21.4666H100.811ZM54.3619 21.6246C53.7391 21.6235 53.136 21.8435 52.6603 22.2456C52.1511 22.6634 51.7982 23.2411 51.6589 23.8848C51.5899 24.1385 51.5504 24.3993 51.5413 24.662V26.563C51.5184 27.3372 51.7918 28.091 52.3056 28.6706C52.5537 28.9498 52.8602 29.171 53.2034 29.3186C53.5465 29.4663 53.9179 29.5367 54.2912 29.5249C55.2449 29.5249 55.995 29.1589 56.5267 28.4207C57.0593 27.6837 57.3249 26.711 57.3235 25.5026C57.3235 24.393 57.0761 23.4752 56.574 22.7564C56.3281 22.3991 55.9971 22.1086 55.611 21.911C55.2248 21.7134 54.7956 21.615 54.3619 21.6246Z" fill="white"/>
<path d="M41.8662 3.26953V10.2576L42.6427 10.294L42.5578 13.4726H41.4174L41.3324 11.4466H36.3704L36.2855 13.4726H35.1451L35.0723 10.294L35.7274 10.2576C36.0588 9.68734 36.3234 9.08078 36.516 8.44995C36.7707 7.5764 36.8678 6.58163 36.8678 5.40478V3.26953H41.8662ZM38.2509 5.78091C38.2702 6.78947 38.1394 7.79529 37.8627 8.76535C37.7106 9.27006 37.5074 9.7579 37.2561 10.2212H40.374V4.49486H38.2509V5.78091Z" fill="white"/>
<path d="M49.3155 8.43736C49.3155 10.609 47.7869 11.5796 46.2825 11.5796C44.6083 11.5796 43.3223 10.427 43.3223 8.53439C43.3223 6.59325 44.5961 5.4043 46.3796 5.4043C48.1387 5.4043 49.3155 6.6418 49.3155 8.43736ZM44.8631 8.49801C44.8631 9.63843 45.4211 10.4998 46.3311 10.4998C47.1803 10.4998 47.7748 9.66269 47.7748 8.47374C47.7748 7.55172 47.3623 6.49623 46.3432 6.49623C45.2877 6.49623 44.8631 7.51527 44.8631 8.49801Z" fill="white"/>
<path d="M54.8835 11.2642C54.351 11.4753 53.7819 11.5784 53.2092 11.5675C51.3652 11.5675 50.1641 10.3907 50.1641 8.55877C50.1641 6.78748 51.3773 5.40441 53.4519 5.40441C53.9469 5.40052 54.4377 5.49538 54.8956 5.68345L54.6287 6.79958C54.2743 6.64031 53.8889 6.56159 53.5004 6.56909C52.36 6.56909 51.6806 7.40619 51.6927 8.48595C51.6927 9.69918 52.4813 10.3907 53.5004 10.3907C53.9044 10.3962 54.3051 10.3177 54.6772 10.1602L54.8835 11.2642Z" fill="white"/>
<path d="M60.5505 5.53906V6.69157H58.7792V11.4474H57.2869V6.69157H55.5156V5.53906H60.5505Z" fill="white"/>
<path d="M62.589 5.53906L63.6566 8.70552C63.7779 9.06948 63.8992 9.51835 63.9842 9.85811H64.0205C64.1176 9.51835 64.2268 9.08165 64.336 8.69342L65.258 5.53906H66.8595L65.3793 9.5669C64.5665 11.775 64.0205 12.7576 63.3169 13.3642C62.8822 13.7681 62.3376 14.0341 61.7518 14.1286L61.4121 12.8668C61.7269 12.7861 62.0234 12.6461 62.2857 12.4543C62.6279 12.2129 62.9067 11.8924 63.0985 11.5202C63.1518 11.4403 63.1851 11.3487 63.1955 11.2533C63.1913 11.1508 63.1621 11.0508 63.1106 10.9621L60.9512 5.53906H62.589Z" fill="white"/>
<path d="M72.9258 5.53906V11.4474H71.4214V6.69157H69.2012V11.4474H67.709V5.53906H72.9258Z" fill="white"/>
<path d="M75.9942 5.53906V7.7956H78.275V5.53906H79.7673V11.4474H78.275V8.96029H75.9942V11.4474H74.502V5.53906H75.9942Z" fill="white"/>
<path d="M86.9757 8.43736C86.9757 10.609 85.447 11.5796 83.9427 11.5796C82.2685 11.5796 80.9824 10.427 80.9824 8.53439C80.9824 6.59325 82.2563 5.4043 84.0398 5.4043C85.7989 5.4043 86.9757 6.6418 86.9757 8.43736ZM82.5232 8.49801C82.5232 9.63843 83.0813 10.4998 83.9912 10.4998C84.8404 10.4998 85.4349 9.66269 85.4349 8.47374C85.4349 7.55172 85.0224 6.49623 84.0033 6.49623C82.9478 6.49623 82.5232 7.51527 82.5232 8.49801Z" fill="white"/>
<path d="M90.6992 5.61051C91.4108 5.51226 92.1283 5.46359 92.8466 5.46487C93.8415 5.46487 95.637 5.59833 95.637 6.95713C95.637 7.70931 95.0547 8.13398 94.4238 8.26738V8.29165C95.2973 8.42512 95.9039 8.91044 95.9039 9.73536C95.9039 11.3611 93.7687 11.5188 92.5797 11.5188C91.8397 11.5188 91.0511 11.4703 90.6992 11.4339V5.61051ZM92.1429 10.5483C92.3847 10.574 92.6278 10.5862 92.8709 10.5846C93.5503 10.5846 94.3753 10.4026 94.3753 9.71109C94.3753 9.04383 93.7201 8.82552 92.786 8.82552H92.1429V10.5483ZM92.1551 7.9277H92.7738C93.5382 7.9277 94.1691 7.70931 94.1691 7.15124C94.1691 6.6781 93.7566 6.42333 92.8709 6.42333C92.6316 6.42532 92.3925 6.44153 92.1551 6.47188V7.9277Z" fill="white"/>
</svg>
