<svg width="126" height="36" viewBox="0 0 126 36" fill="none" xmlns="http://www.w3.org/2000/svg">
<path d="M0.583113 2.04883C0.412663 2.10695 0.264727 2.21706 0.160126 2.36365C0.0555241 2.51024 -0.000474742 2.68594 3.21501e-06 2.86603V31.4053C-0.000484726 31.5839 0.0545795 31.7582 0.157578 31.9041C0.260577 32.05 0.406405 32.1603 0.574856 32.2196L15.7358 17.1301L0.583113 2.04883Z" fill="#00D6FF"/>
<path d="M20.0079 12.8797L1.29918 2.11576C1.19196 2.05336 1.07243 2.0151 0.948907 2.00364C0.825385 1.99219 0.700843 2.00782 0.583984 2.04945L15.7367 17.1307L20.0079 12.8797Z" fill="#00F076"/>
<path d="M1.29767 32.1569L20.0135 21.3889L15.7352 17.1309L0.574219 32.2204C0.692042 32.2637 0.817972 32.2804 0.943024 32.2695C1.06808 32.2585 1.18918 32.2201 1.29767 32.1569Z" fill="#FF3A44"/>
<path d="M20.0126 21.388L26.0988 17.8863C26.2307 17.8104 26.3404 17.701 26.4166 17.5692C26.4929 17.4373 26.533 17.2878 26.533 17.1355C26.533 16.9832 26.4929 16.8336 26.4166 16.7018C26.3404 16.5699 26.2307 16.4605 26.0988 16.3846L20.0056 12.8789L15.7344 17.1299L20.0126 21.388Z" fill="#FFD000"/>
<path d="M60.2693 20.3801C57.5898 20.3801 55.4685 22.3898 55.4685 25.1809C55.4638 25.8127 55.5847 26.4391 55.8243 27.0237C56.0639 27.6082 56.4174 28.1394 56.8641 28.5861C57.3108 29.0328 57.8419 29.3863 58.4265 29.6259C59.0111 29.8654 59.6375 29.9864 60.2693 29.9817C62.9488 29.9817 65.0701 27.9721 65.0701 25.1809C65.0701 22.2781 62.9488 20.3801 60.2693 20.3801ZM60.2693 27.972C58.8179 27.972 57.5898 26.7439 57.5898 25.0693C57.5898 23.3946 58.8179 22.1665 60.2693 22.1665C61.7207 22.1665 62.9488 23.2829 62.9488 25.0693C62.9488 26.7439 61.7207 27.972 60.2693 27.972ZM49.8862 20.3801C47.2068 20.3801 45.0855 22.3898 45.0855 25.1809C45.0808 25.8127 45.2017 26.4391 45.4413 27.0237C45.6809 27.6082 46.0343 28.1394 46.4811 28.5861C46.9278 29.0328 47.4589 29.3863 48.0435 29.6259C48.6281 29.8654 49.2545 29.9864 49.8862 29.9817C52.5657 29.9817 54.687 27.9721 54.687 25.1809C54.687 22.2781 52.5657 20.3801 49.8862 20.3801ZM49.8862 27.972C48.4349 27.972 47.2068 26.7439 47.2068 25.0693C47.2068 23.3946 48.4349 22.1665 49.8862 22.1665C51.3376 22.1665 52.5657 23.2829 52.5657 25.0693C52.5657 26.7439 51.3376 27.972 49.8862 27.972ZM37.4936 21.8315V23.8412H42.2944C42.1827 24.9576 41.7361 25.8508 41.1779 26.409C40.508 27.0789 39.3916 27.8604 37.4936 27.8604C34.4792 27.8604 32.2463 25.5158 32.2463 22.5014C32.2463 19.487 34.5908 17.1424 37.4936 17.1424C39.0566 17.1424 40.2847 17.8123 41.1779 18.5938L42.6293 17.1424C41.4012 16.026 39.8381 15.1328 37.6052 15.1328C33.586 15.1328 30.125 18.4822 30.125 22.5014C30.125 26.5207 33.586 29.87 37.6052 29.87C39.8381 29.87 41.4012 29.2002 42.7409 27.7488C44.0807 26.409 44.5273 24.511 44.5273 23.0596C44.5273 22.6131 44.5273 22.1665 44.4156 21.8315H37.4936L37.4936 21.8315ZM88.1807 23.3946C87.7341 22.2781 86.6176 20.3801 84.1614 20.3801C81.7052 20.3801 79.6956 22.2781 79.6956 25.1809C79.6956 27.8604 81.7052 29.9817 84.3847 29.9817C86.506 29.9817 87.8457 28.6419 88.2923 27.8604L86.7293 26.7439C86.1711 27.5255 85.5012 28.0837 84.3847 28.0837C83.2683 28.0837 82.5984 27.6371 82.0402 26.6323L88.404 23.9528L88.1807 23.3946ZM81.7052 24.9576C81.7052 23.1713 83.1566 22.1665 84.1614 22.1665C84.9429 22.1665 85.7245 22.6131 85.9478 23.1713L81.7052 24.9576H81.7052ZM76.4579 29.5351H78.5792V15.5794H76.4579V29.5351ZM73.1085 21.385C72.4334 20.6886 71.5104 20.2873 70.5407 20.2685C68.1961 20.2685 65.9632 22.3898 65.9632 25.0693C65.9545 25.6781 66.0661 26.2826 66.2916 26.8482C66.5172 27.4138 66.8523 27.9292 67.2776 28.3649C67.7029 28.8007 68.2102 29.148 68.7701 29.3872C69.3301 29.6263 69.9318 29.7524 70.5407 29.7584C71.0066 29.762 71.4678 29.6639 71.892 29.4711C72.3161 29.2783 72.6932 28.9953 72.9969 28.6419H73.1085V29.3118C73.1085 31.0981 72.1037 32.1029 70.5407 32.1029C69.3126 32.1029 68.4194 31.2098 68.1961 30.4282L66.4098 31.2098C66.968 32.4379 68.3078 34.0009 70.6523 34.0009C73.1085 34.0009 75.1181 32.5495 75.1181 29.0885V20.6034H73.1085V21.385L73.1085 21.385ZM70.6523 27.972C69.2009 27.972 67.9728 26.7439 67.9728 25.0693C67.9728 23.3946 69.2009 22.1665 70.6523 22.1665C72.1037 22.1665 73.2202 23.3946 73.2202 25.0693C73.2202 26.7439 72.1037 27.972 70.6523 27.972V27.972ZM97.8939 15.5794H92.8698V29.5351H94.9911V24.2877H97.8939C100.238 24.2877 102.471 22.6131 102.471 19.9336C102.471 17.2541 100.238 15.5794 97.8939 15.5794V15.5794ZM98.0055 22.2781H94.9911V17.4774H98.0055C98.6383 17.4757 99.2472 17.7188 99.705 18.1558C100.163 18.5927 100.434 19.1897 100.462 19.8219C100.35 21.05 99.4569 22.2781 98.0055 22.2781V22.2781ZM110.845 20.2685C109.282 20.2685 107.719 20.9384 107.16 22.3898L109.058 23.1713C109.505 22.3898 110.175 22.1665 110.956 22.1665C112.073 22.1665 113.078 22.8363 113.189 23.9528V24.0645C112.854 23.8412 111.961 23.5062 111.068 23.5062C109.058 23.5062 107.049 24.6227 107.049 26.6323C107.049 28.5303 108.723 29.7584 110.51 29.7584C111.961 29.7584 112.631 29.0885 113.189 28.4186H113.301V29.5351H115.311V24.1761C115.087 21.7199 113.189 20.2685 110.845 20.2685L110.845 20.2685ZM110.621 27.972C109.952 27.972 108.947 27.6371 108.947 26.7439C108.947 25.6275 110.175 25.2925 111.18 25.2925C112.073 25.2925 112.519 25.5158 113.078 25.7391C112.854 27.0789 111.738 27.972 110.621 27.972V27.972ZM122.344 20.6034L120 26.6323H119.888L117.432 20.6034H115.199L118.883 29.0885L116.762 33.7776H118.883L124.577 20.6034H122.344ZM103.588 29.5351H105.709V15.5794H103.588V29.5351Z" fill="white"/>
<path d="M36.0624 9.34577C35.4844 10.0063 34.8068 10.3274 33.9905 10.3274C33.6471 10.3347 33.3057 10.2727 32.9868 10.1453C32.6678 10.0179 32.3778 9.82752 32.1339 9.58562C31.6332 9.09433 31.3793 8.43873 31.3793 7.63695C31.3793 6.83525 31.6332 6.17958 32.1339 5.68822C32.3778 5.44637 32.6678 5.25607 32.9868 5.12864C33.3057 5.00122 33.6471 4.93929 33.9905 4.94653C34.7841 4.94653 35.3925 5.22391 35.8504 5.79448L35.9492 5.91768L36.7946 5.09876L36.7058 4.99595C36.3727 4.60375 35.9558 4.29145 35.4858 4.08211C35.0158 3.87278 34.5048 3.77178 33.9905 3.78658C33.4822 3.78254 32.9783 3.87914 32.5076 4.07083C32.0369 4.26252 31.6088 4.54549 31.248 4.90343C30.8872 5.26137 30.6008 5.6872 30.4054 6.15635C30.21 6.6255 30.1094 7.1287 30.1094 7.63693C30.1094 8.14516 30.21 8.64836 30.4054 9.11751C30.6008 9.58666 30.8872 10.0125 31.248 10.3704C31.6088 10.7284 32.0369 11.0113 32.5076 11.203C32.9783 11.3947 33.4822 11.4913 33.9905 11.4873C34.562 11.492 35.1275 11.3706 35.6468 11.1319C36.1363 10.9086 36.5698 10.5789 36.9157 10.1668L36.9994 10.0659L36.1637 9.23004L36.0624 9.34577Z" fill="white"/>
<path d="M46.0209 3.98633L43.3672 11.0026L40.6994 7.18975L43.322 4.18148V3.98633H41.8819L38.8604 7.40122V3.98634H37.709V11.3265H38.8604V9.18622L39.8296 8.10714L42.1111 11.3265H44.5565L45.2503 9.45544H48.0307L48.7145 11.3265H50.035L47.2506 3.98633H46.0209ZM47.6099 8.30405H45.6616L46.6358 5.61482L47.6099 8.30405Z" fill="white"/>
<path d="M54.1164 6.81259C53.8286 7.23636 53.316 7.44255 52.7076 7.44255C52.2864 7.44255 51.9489 7.33151 51.727 7.11239C51.6079 6.98725 51.5158 6.83895 51.4564 6.67671C51.397 6.51447 51.3717 6.34175 51.3819 6.16929V3.98633H50.2305V6.3279C50.2305 7.01534 50.4473 7.57164 50.9066 7.98127C51.3731 8.39242 51.9784 8.61094 52.6 8.5926C53.1643 8.61101 53.7157 8.42175 54.1498 8.06069L54.1164 8.29013V11.3265H55.4117V3.98633H54.1164V6.81259Z" fill="white"/>
<path d="M57.4285 9.16932L57.4268 8.24058V3.98633H56.2754V11.3265H57.4584L60.8877 5.85662L60.881 6.76392V11.3265H62.0324V3.98633H60.708L57.4285 9.16932Z" fill="white"/>
<path d="M67.2743 7.5033C67.4825 7.37163 67.6612 7.19831 67.7992 6.99423C67.992 6.70686 68.0923 6.36745 68.0867 6.02147C68.0922 5.74344 68.0362 5.46763 67.9226 5.2138C67.809 4.95997 67.6407 4.7344 67.4297 4.55325C67.0084 4.17442 66.4577 3.97178 65.8914 3.98714H63.1836V11.3273H66.0301C66.6242 11.3356 67.1991 11.1171 67.6376 10.7163C67.8587 10.5232 68.0348 10.2841 68.1534 10.0157C68.2721 9.74729 68.3305 9.45613 68.3246 9.16271C68.3301 8.76551 68.2007 8.37818 67.9575 8.06406C67.776 7.82703 67.5421 7.63513 67.2743 7.5033ZM66.6125 6.7035C66.5219 6.80396 66.4104 6.88341 66.2858 6.93627C66.1612 6.98914 66.0266 7.01414 65.8914 7.00955H64.335V5.13853H65.931C66.0591 5.12973 66.1876 5.1496 66.3071 5.19672C66.4265 5.24383 66.534 5.317 66.6216 5.41089C66.7065 5.49599 66.7738 5.5971 66.8193 5.70837C66.8649 5.81964 66.8879 5.93885 66.8871 6.05909C66.8862 6.17932 66.8615 6.2982 66.8144 6.40882C66.7673 6.51943 66.6987 6.6196 66.6125 6.7035ZM66.8146 9.85373C66.7221 9.95937 66.6073 10.0431 66.4785 10.0988C66.3497 10.1545 66.21 10.1809 66.0697 10.1759H64.335V8.16094H66.0301C66.1662 8.15397 66.3023 8.17427 66.4305 8.22064C66.5587 8.26701 66.6763 8.33852 66.7764 8.43097C66.8766 8.52342 66.9572 8.63494 67.0137 8.759C67.0701 8.88305 67.1012 9.01713 67.1052 9.15337C67.1021 9.41553 66.998 9.66641 66.8146 9.85373Z" fill="white"/>
<path d="M71.1926 3.98633L68.4082 11.3265H69.7282L70.4219 9.45544H73.2023L73.8862 11.3265H75.2066L72.4223 3.98633H71.1926ZM72.7815 8.30405H70.8333L71.8074 5.61482L72.7815 8.30405Z" fill="white"/>
<path d="M78.5376 3.69686C78.7178 3.69539 78.8958 3.65798 79.0612 3.58684C79.2267 3.51569 79.3763 3.41224 79.5013 3.28254C79.6263 3.15284 79.7241 2.99951 79.7891 2.83152C79.854 2.66352 79.8848 2.48425 79.8796 2.30421V2.11524H78.8722V2.30421C78.8843 2.41178 78.8541 2.51985 78.7879 2.60548C78.7565 2.645 78.7161 2.67646 78.6701 2.69729C78.6242 2.71811 78.5739 2.72769 78.5235 2.72523C78.4718 2.72821 78.4202 2.71926 78.3725 2.69908C78.3249 2.6789 78.2825 2.64803 78.2487 2.60885C78.178 2.52379 78.1435 2.41442 78.1526 2.30421V2.11523H77.1451V2.30421C77.1396 2.48978 77.1741 2.67437 77.246 2.84551C77.318 3.01665 77.4258 3.17037 77.5622 3.29629C77.6905 3.42387 77.8427 3.52491 78.0101 3.59364C78.1774 3.66238 78.3567 3.69745 78.5376 3.69686Z" fill="white"/>
<path d="M76.8455 9.16932L76.8565 8.24058V3.98633H75.7051V11.3265H76.8627L80.3046 5.85662L80.3106 6.76392V11.3265H81.462V3.98633H80.1122L76.8455 9.16932Z" fill="white"/>
<path d="M82.0391 5.13772H84.054V11.3265H85.3493V5.13772H87.2203V3.98633H82.0391V5.13772Z" fill="white"/>
<path d="M87.9395 11.3265H92.4011V10.1751H89.2348V8.16012H92.1132V7.00873H89.2348V5.13772H92.4011V3.98633H87.9395V11.3265Z" fill="white"/>
<path d="M100.324 8.06424C100.143 7.82711 99.9088 7.63514 99.6408 7.5033C99.8491 7.37165 100.028 7.19832 100.166 6.99423C100.359 6.70687 100.459 6.36746 100.453 6.02147C100.459 5.74344 100.403 5.46763 100.289 5.2138C100.176 4.95997 100.007 4.7344 99.7963 4.55324C99.375 4.17443 98.8243 3.97179 98.258 3.98714H95.5664V11.3273H98.3967C98.9908 11.3356 99.5657 11.1171 100.004 10.7163C100.225 10.5233 100.401 10.2841 100.52 10.0157C100.639 9.74729 100.697 9.45613 100.691 9.16272C100.697 8.76556 100.567 8.37828 100.324 8.06424ZM98.9793 6.7035C98.8886 6.80396 98.777 6.8834 98.6524 6.93626C98.5279 6.98913 98.3932 7.01414 98.258 7.00955H96.7178V5.13853H98.2976C98.4257 5.12972 98.5542 5.1496 98.6737 5.19672C98.7932 5.24383 98.9006 5.317 98.9883 5.41089C99.0732 5.49599 99.1404 5.5971 99.186 5.70837C99.2315 5.81963 99.2546 5.93884 99.2537 6.05907C99.2529 6.1793 99.2282 6.29818 99.1811 6.4088C99.134 6.51942 99.0654 6.61958 98.9793 6.7035ZM99.1812 9.85373C99.0888 9.95937 98.974 10.0431 98.8451 10.0988C98.7163 10.1545 98.5766 10.1809 98.4363 10.1759H96.7178V8.16094H98.3967C98.5328 8.15397 98.6689 8.17427 98.7971 8.22065C98.9253 8.26702 99.0429 8.33852 99.143 8.43097C99.2431 8.52342 99.3238 8.63494 99.3803 8.759C99.4367 8.88305 99.4678 9.01713 99.4718 9.15337C99.4687 9.41551 99.3646 9.66637 99.1812 9.85373Z" fill="white"/>
</svg>
