<svg width="24" height="24" viewBox="0 0 24 24" fill="none" xmlns="http://www.w3.org/2000/svg">
<path d="M12 15C13.6569 15 15 13.6569 15 12C15 10.3431 13.6569 9 12 9C10.3431 9 9 10.3431 9 12C9 13.6569 10.3431 15 12 15Z" fill="white"/>
<path fill-rule="evenodd" clip-rule="evenodd" d="M2 7.90909C2 4.65 4.65 2 7.90909 2H16.0909C19.35 2 22 4.65 22 7.90909V16.0909C22 19.35 19.35 22 16.0909 22H7.90909C4.65 22 2 19.35 2 16.0909V7.90909ZM18.3636 6.54545C18.3636 6.04545 17.9545 5.63636 17.4545 5.63636C16.9545 5.63636 16.5455 6.04545 16.5455 6.54545C16.5455 7.04545 16.9545 7.45455 17.4545 7.45455C17.9545 7.45455 18.3636 7.04545 18.3636 6.54545ZM17 12C17 9.24091 14.7591 7 12 7C9.24091 7 7 9.24091 7 12C7 14.7591 9.24091 17 12 17C14.7591 17 17 14.7591 17 12Z" fill="white"/>
</svg>
