<svg width="92" height="46" viewBox="0 0 92 46" fill="none" xmlns="http://www.w3.org/2000/svg">
<path d="M12 12C15.3137 12 18 9.31371 18 6C18 2.68629 15.3137 0 12 0C8.68629 0 6 2.68629 6 6C6 9.31371 8.68629 12 12 12Z" fill="white"/>
<path d="M80.498 15L69 34.577L57.498 15H46L63.249 46H74.751L92 15H80.498Z" fill="white"/>
<path d="M0 15V26.426C1.50004 26.426 2.93863 27.0266 3.99932 28.0957C5.06001 29.1648 5.65589 30.6148 5.65589 32.1268V46H17V32.1349C16.9947 27.5921 15.2019 23.2369 12.0149 20.0246C8.82795 16.8124 4.50704 15.0054 0 15H0Z" fill="white"/>
<path d="M49.7018 34.5726H38.9677C37.4676 34.5726 36.029 33.9719 34.9684 32.9027C33.9077 31.8334 33.3118 30.3832 33.3118 28.8711V26.4276H45.2417L38.9677 14.988H33.3118V6H22V28.863C22.0053 33.4063 23.7981 37.7621 26.9851 40.9747C30.1721 44.1874 34.493 45.9946 39 46H56L49.7018 34.5726Z" fill="white"/>
</svg>
