<svg width="185" height="44" viewBox="0 0 185 44" fill="none" xmlns="http://www.w3.org/2000/svg">
<path d="M63.1384 29.137C63.623 29.137 63.9929 29.0219 64.2479 28.7918C64.5285 28.5361 64.6688 28.2676 64.6688 27.9863C64.6688 27.6539 64.4137 27.3726 63.9036 27.1425C63.3935 26.8868 62.7559 26.6183 61.9907 26.337C61.2255 26.0301 60.3966 25.6721 59.5039 25.263C58.6112 24.8539 57.7823 24.3169 57.0171 23.6521C56.252 22.9872 55.6143 22.169 55.1042 21.1973C54.5941 20.2256 54.339 19.0365 54.339 17.6301C54.339 16.5306 54.5941 15.4694 55.1042 14.4466C55.6143 13.3982 56.3412 12.4776 57.2849 11.6849C58.2286 10.8667 59.3636 10.2146 60.6899 9.72877C62.0417 9.24292 63.5593 9 65.2426 9C66.977 9 68.4818 9.23014 69.7571 9.69041C71.0324 10.1251 72.1036 10.5982 72.9708 11.1096C73.991 11.7489 74.8582 12.4521 75.5724 13.2192L71.9378 18.9726C71.4787 18.589 70.9814 18.2438 70.4458 17.937C69.9867 17.6557 69.4511 17.4128 68.8389 17.2082C68.2523 16.9781 67.6274 16.863 66.9643 16.863C66.4797 16.863 66.0971 16.9909 65.8165 17.2466C65.5615 17.4767 65.4339 17.7324 65.4339 18.0137C65.4339 18.3461 65.689 18.6402 66.1991 18.8959C66.7092 19.126 67.3469 19.3945 68.112 19.7014C68.8772 19.9826 69.7061 20.3406 70.5988 20.7753C71.4915 21.1845 72.3204 21.7215 73.0856 22.3863C73.8508 23.0256 74.4884 23.831 74.9985 24.8027C75.5086 25.7744 75.7637 26.9635 75.7637 28.3699C75.7637 29.4694 75.5086 30.5434 74.9985 31.5918C74.4884 32.6146 73.7615 33.5352 72.8178 34.3534C71.8741 35.1461 70.7263 35.7854 69.3745 36.2712C68.0483 36.7571 66.5434 37 64.8601 37C62.7431 37 60.9322 36.7699 59.4274 36.3096C57.9481 35.8237 56.7238 35.2868 55.7546 34.6986C54.6324 34.0338 53.7142 33.2667 53 32.3973L56.6345 26.6438C57.1702 27.1297 57.7695 27.5516 58.4327 27.9096C59.0193 28.2164 59.708 28.4977 60.4986 28.7534C61.2893 29.0091 62.1692 29.137 63.1384 29.137Z" fill="white"/>
<path d="M103.328 9.57534V18.3973H96.0585V36.4247H86.1113V18.3973H78.8423V9.57534H103.328Z" fill="white"/>
<path d="M125.331 9.57534C125.331 9.60091 125.445 10.01 125.675 10.8027C125.904 11.5699 126.198 12.5927 126.555 13.8712C126.937 15.1242 127.358 16.5562 127.817 18.1671C128.302 19.7781 128.787 21.4146 129.271 23.0767C130.419 27.0146 131.72 31.4639 133.173 36.4247H122.079L121.313 32.589H116.34L115.575 36.4247H104.48L112.323 9.57534H125.331ZM120.166 26.4521L118.827 19.5479L117.488 26.4521H120.166Z" fill="white"/>
<path d="M146.16 17.2466L148.838 9.57534H160.316L151.134 26.0685V36.4247H141.187V26.0685L132.005 9.57534H143.482L146.16 17.2466Z" fill="white"/>
<path d="M172.375 29.137C172.859 29.137 173.229 29.0219 173.484 28.7918C173.765 28.5361 173.905 28.2676 173.905 27.9863C173.905 27.6539 173.65 27.3726 173.14 27.1425C172.63 26.8868 171.992 26.6183 171.227 26.337C170.462 26.0301 169.633 25.6721 168.74 25.263C167.848 24.8539 167.019 24.3169 166.253 23.6521C165.488 22.9872 164.851 22.169 164.341 21.1973C163.83 20.2256 163.575 19.0365 163.575 17.6301C163.575 16.5306 163.83 15.4694 164.341 14.4466C164.851 13.3982 165.578 12.4776 166.521 11.6849C167.465 10.8667 168.6 10.2146 169.926 9.72877C171.278 9.24292 172.796 9 174.479 9C176.213 9 177.718 9.23014 178.993 9.69041C180.269 10.1251 181.34 10.5982 182.207 11.1096C183.227 11.7489 184.095 12.4521 184.809 13.2192L181.174 18.9726C180.715 18.589 180.218 18.2438 179.682 17.937C179.223 17.6557 178.687 17.4128 178.075 17.2082C177.489 16.9781 176.864 16.863 176.201 16.863C175.716 16.863 175.333 16.9909 175.053 17.2466C174.798 17.4767 174.67 17.7324 174.67 18.0137C174.67 18.3461 174.925 18.6402 175.435 18.8959C175.946 19.126 176.583 19.3945 177.348 19.7014C178.114 19.9826 178.942 20.3406 179.835 20.7753C180.728 21.1845 181.557 21.7215 182.322 22.3863C183.087 23.0256 183.725 23.831 184.235 24.8027C184.745 25.7744 185 26.9635 185 28.3699C185 29.4694 184.745 30.5434 184.235 31.5918C183.725 32.6146 182.998 33.5352 182.054 34.3534C181.11 35.1461 179.963 35.7854 178.611 36.2712C177.285 36.7571 175.78 37 174.096 37C171.979 37 170.169 36.7699 168.664 36.3096C167.184 35.8237 165.96 35.2868 164.991 34.6986C163.869 34.0338 162.95 33.2667 162.236 32.3973L165.871 26.6438C166.406 27.1297 167.006 27.5516 167.669 27.9096C168.256 28.2164 168.944 28.4977 169.735 28.7534C170.526 29.0091 171.406 29.137 172.375 29.137Z" fill="white"/>
<path d="M38.4508 14.3805C36.1437 4.46439 27.289 0 19.511 0C19.511 0 19.511 0 19.489 0C11.7329 0 2.8563 4.44293 0.549249 14.359C-2.02146 25.4341 4.92165 34.8137 11.2056 40.7161C13.5346 42.9054 16.5228 44 19.511 44C22.4992 44 25.4873 42.9054 27.7944 40.7161C34.0783 34.8137 41.0215 25.4556 38.4508 14.3805ZM19.511 25.1337C15.6879 25.1337 12.5898 22.1073 12.5898 18.3727C12.5898 14.6381 15.6879 11.6117 19.511 11.6117C23.3341 11.6117 26.4321 14.6381 26.4321 18.3727C26.4321 22.1073 23.3341 25.1337 19.511 25.1337Z" fill="white"/>
</svg>
