<svg width="100" height="72" viewBox="0 0 100 72" fill="none" xmlns="http://www.w3.org/2000/svg">
<g clip-path="url(#clip0_2677_10267)">
<path d="M74.2427 46.5321C72.9346 54.3021 70.406 61.8208 66.7489 68.8147C66.4932 69.1995 66.3754 69.6582 66.4144 70.1173C66.4534 70.5765 66.6469 71.0093 66.9638 71.3463C67.2808 71.6833 67.7028 71.9049 68.1622 71.9756C68.6215 72.0464 69.0915 71.962 69.4966 71.7362C90.554 59.555 99.7713 41.828 100.92 27.5919C101.92 15.3365 93.4266 2.68491 80.6623 0.357615C77.5413 -0.190134 74.3408 -0.10794 71.2526 0.599277C68.1644 1.30649 65.252 2.62418 62.6897 4.47343C60.1274 6.32268 57.9681 8.66545 56.3409 11.3614C54.7138 14.0574 53.6523 17.0512 53.22 20.1634C52.7878 23.2756 52.9937 26.4423 53.8255 29.4737C54.6572 32.5052 56.0976 35.3391 58.0605 37.8058C60.0233 40.2724 62.4683 42.3211 65.2488 43.829C68.0294 45.337 71.0884 46.2732 74.2427 46.5816V46.5321Z" fill="#323232"/>
<path d="M21.5287 46.5467C20.222 54.3008 17.7187 61.8052 14.1081 68.7919C13.8359 69.1711 13.703 69.6326 13.7319 70.0983C13.7607 70.5641 13.9495 71.0057 14.2664 71.3485C14.5833 71.6913 15.0088 71.9143 15.4712 71.9799C15.9336 72.0455 16.4044 71.9496 16.8043 71.7085C37.656 59.5478 46.808 41.8505 47.9211 27.6383C48.9105 15.4035 40.5006 2.7732 27.8856 0.449814C24.7664 -0.171572 21.553 -0.148934 18.4428 0.516338C15.3327 1.18161 12.3915 2.47546 9.80022 4.31835C7.2089 6.16124 5.02213 8.51424 3.37434 11.2327C1.72655 13.9512 0.652551 16.9777 0.218361 20.1262C-0.215828 23.2747 -0.00103439 26.4786 0.84954 29.5411C1.70011 32.6036 3.1685 35.4599 5.16443 37.9345C7.16036 40.409 9.64167 42.4496 12.4558 43.9306C15.27 45.4117 18.3575 46.3019 21.5287 46.5467Z" fill="#323232"/>
</g>
<defs>
<clipPath id="clip0_2677_10267">
<rect width="100" height="72" fill="white"/>
</clipPath>
</defs>
</svg>
