<svg width="359" height="140" viewBox="0 0 359 140" fill="none" xmlns="http://www.w3.org/2000/svg">
<path fill-rule="evenodd" clip-rule="evenodd" d="M176.459 84.9345V81.1797H195.371V84.9345H187.984V106.651H183.831V84.9345H176.459Z" fill="white"/>
<path fill-rule="evenodd" clip-rule="evenodd" d="M200.766 106.972C197.563 106.972 194.468 104.934 194.468 101.516C194.36 97.3326 197.425 95.3862 201.272 95.3862C203.09 95.3847 204.88 95.8321 206.483 96.6889V94.8958C206.483 90.2981 198.59 91.8307 196.399 92.9035L195.816 90.0529C197.846 89.1111 200.062 88.6396 202.299 88.6736C206.56 88.6736 210.33 90.2062 210.33 95.0031V101.915C210.33 103.555 210.33 104.612 212.153 104.428L212.23 106.681C209.456 107.156 207.31 107.156 207.203 103.708C206.528 104.785 205.572 105.658 204.438 106.233C203.304 106.808 202.035 107.064 200.766 106.972ZM206.483 99.187C205.085 98.3845 203.497 97.9717 201.885 97.9916C201.429 97.9532 200.969 98.0105 200.536 98.1598C200.103 98.3091 199.705 98.5471 199.369 98.8586C199.033 99.1702 198.766 99.5484 198.584 99.9691C198.402 100.39 198.311 100.844 198.314 101.302C198.314 103.049 199.924 103.846 201.517 103.846C203.602 103.846 206.038 102.865 206.437 100.643L206.483 99.187Z" fill="white"/>
<path fill-rule="evenodd" clip-rule="evenodd" d="M226.145 103.155V89.1172H229.976V103.155H236.444V89.1172H240.229V106.65H215.861V89.1172H219.677V103.155H226.145Z" fill="white"/>
<path fill-rule="evenodd" clip-rule="evenodd" d="M251.14 96.0914C255.554 96.0914 257.117 93.3021 257.117 89.0723H260.903C260.903 92.9037 259.953 96.2753 256.305 97.9612L261.945 106.252V106.651H257.792L252.872 99.2332C252.263 99.3641 251.641 99.4258 251.018 99.4171H249.271V106.651H245.332V89.1182H249.271V96.0914H251.14Z" fill="white"/>
<path fill-rule="evenodd" clip-rule="evenodd" d="M281.134 98.6042H268.199C268.199 101.807 270.713 103.708 273.916 103.708C276.098 103.85 278.284 103.472 280.291 102.604L280.797 105.562C278.717 106.517 276.464 107.038 274.176 107.095C268.383 107.202 264.123 103.493 264.307 97.562C264.272 96.3712 264.487 95.1863 264.936 94.083C265.385 92.9797 266.06 91.9823 266.917 91.1545C267.773 90.3266 268.793 89.6865 269.911 89.2751C271.029 88.8637 272.221 88.69 273.41 88.7651C279.54 88.7651 282.329 92.8264 281.165 98.6501L281.134 98.6042ZM268.199 95.7996H277.885C277.992 93.1482 275.801 91.7689 273.287 91.7689C272.085 91.6626 270.887 92.0211 269.94 92.7708C268.994 93.5206 268.371 94.6044 268.199 95.7996Z" fill="white"/>
<path fill-rule="evenodd" clip-rule="evenodd" d="M301.577 89.1172V106.65H297.715V99.2934H289.24V106.65H285.424V89.1172H289.24V95.8452H297.715V89.1172H301.577Z" fill="white"/>
<path fill-rule="evenodd" clip-rule="evenodd" d="M310.636 106.604V92.5655H304.996V89.1172H320.169V92.5655H314.498V106.604H310.636Z" fill="white"/>
<path fill-rule="evenodd" clip-rule="evenodd" d="M328.35 106.972C325.147 106.972 322.052 104.934 322.052 101.517C321.944 97.3326 325.009 95.3862 328.856 95.3862C330.674 95.3847 332.464 95.8321 334.067 96.6889V94.8958C334.067 90.2981 326.174 91.8307 323.983 92.9035L323.37 90.0529C325.399 89.1111 327.615 88.6396 329.852 88.6736C334.113 88.6736 337.883 90.2062 337.883 95.0031V101.915C337.883 103.555 337.883 104.612 339.707 104.428V106.681C336.948 107.156 334.787 107.156 334.68 103.708C334.006 104.786 333.05 105.66 331.916 106.235C330.781 106.811 329.512 107.066 328.243 106.972H328.35ZM334.098 99.187C332.699 98.3845 331.112 97.9717 329.5 97.9916C329.043 97.9532 328.584 98.0105 328.15 98.1598C327.717 98.3091 327.32 98.5471 326.984 98.8586C326.648 99.1702 326.38 99.5484 326.199 99.9691C326.017 100.39 325.925 100.844 325.929 101.302C325.929 103.049 327.462 103.846 329.132 103.846C331.216 103.846 333.653 102.865 334.052 100.643L334.098 99.187Z" fill="white"/>
<path fill-rule="evenodd" clip-rule="evenodd" d="M176.459 38.7883V35.0488H195.371V38.7883H187.984V60.5201H183.831V38.7883H176.459Z" fill="white"/>
<path fill-rule="evenodd" clip-rule="evenodd" d="M206.252 42.512C211.417 42.512 214.175 46.8338 214.175 51.6307C214.175 57.2706 210.114 60.9181 205.409 60.7035C203.841 60.609 202.32 60.13 200.98 59.3089V69.5311H197.011V48.5809C197.011 46.5426 197.195 45.5158 195.156 45.5158V42.7878C198.068 42.2054 200.29 42.6805 200.29 45.7763C200.838 44.6802 201.705 43.7765 202.779 43.1853C203.852 42.594 205.079 42.3431 206.298 42.466L206.252 42.512ZM200.903 55.8146C202.195 56.7742 203.77 57.2758 205.378 57.2399C208.03 57.1326 210.175 55.2016 210.175 51.6307C210.175 48.7342 208.643 46.0369 205.455 46.0369C204.827 46.0357 204.206 46.1631 203.63 46.4113C203.053 46.6594 202.533 47.0229 202.102 47.4795C201.672 47.9361 201.339 48.4761 201.125 49.0661C200.911 49.6562 200.82 50.2838 200.857 50.9104L200.903 55.8146Z" fill="white"/>
<path fill-rule="evenodd" clip-rule="evenodd" d="M223.202 60.8416C219.999 60.8416 216.903 58.8033 216.903 55.3856C216.796 51.2017 219.861 49.2554 223.708 49.2554C225.527 49.2591 227.316 49.7119 228.918 50.5734V48.7649C228.918 44.1672 221.026 45.6998 218.834 46.7573L218.252 43.922C220.281 42.9803 222.497 42.5088 224.735 42.5427C228.995 42.5427 232.765 44.0753 232.765 48.8722V55.7841C232.765 57.424 232.765 58.4814 234.589 58.2975L234.666 60.5504C231.907 61.0255 229.746 61.0255 229.639 57.5619C228.965 58.6418 228.01 59.5178 226.876 60.0957C225.742 60.6735 224.472 60.9314 223.202 60.8416ZM228.918 53.0561C227.523 52.2465 225.934 51.8332 224.321 51.8607C223.868 51.829 223.413 51.8913 222.985 52.0436C222.558 52.1959 222.166 52.435 221.835 52.7458C221.504 53.0567 221.241 53.4325 221.062 53.8499C220.883 54.2672 220.793 54.717 220.796 55.1711C220.796 56.9182 222.405 57.7151 223.999 57.7151C226.083 57.7151 228.597 56.7343 228.918 54.5121V53.0561Z" fill="white"/>
<path fill-rule="evenodd" clip-rule="evenodd" d="M254.391 42.9727V60.5206H250.529V53.1642H242.054V60.5206H238.223V42.9727H242.054V49.7159H250.529V42.9727H254.391Z" fill="white"/>
<path fill-rule="evenodd" clip-rule="evenodd" d="M272.504 48.7964C272.11 47.9198 271.46 47.183 270.64 46.6825C269.819 46.182 268.867 45.9412 267.907 45.9918C267.169 45.9845 266.437 46.1284 265.756 46.4146C265.076 46.7008 264.461 47.1232 263.95 47.6558C263.439 48.1884 263.042 48.82 262.785 49.5116C262.527 50.2033 262.413 50.9404 262.451 51.6776C262.402 52.4117 262.506 53.1478 262.755 53.8401C263.004 54.5324 263.393 55.1658 263.898 55.7009C264.402 56.236 265.012 56.6612 265.689 56.9499C266.366 57.2386 267.094 57.3846 267.83 57.3787C268.853 57.4059 269.859 57.1134 270.708 56.542C271.556 55.9706 272.206 55.1488 272.566 54.191H276.351C275.936 56.1347 274.843 57.8675 273.268 59.0801C271.693 60.2928 269.739 60.9065 267.754 60.8117C266.533 60.8614 265.315 60.6576 264.177 60.2131C263.038 59.7685 262.005 59.093 261.141 58.229C260.277 57.365 259.601 56.3313 259.157 55.1932C258.712 54.0551 258.508 52.8371 258.558 51.6163C258.524 50.3995 258.739 49.1887 259.189 48.0578C259.639 46.9268 260.315 45.8996 261.176 45.0389C262.037 44.1782 263.064 43.5021 264.195 43.0519C265.326 42.6018 266.537 42.3871 267.754 42.4209C269.693 42.2974 271.614 42.8656 273.174 44.0245C274.734 45.1834 275.833 46.8579 276.275 48.7504L272.504 48.7964Z" fill="white"/>
<path fill-rule="evenodd" clip-rule="evenodd" d="M296.182 42.9727V60.5206H292.259V46.4669H284.105V60.5206H280.105V42.9727H296.182Z" fill="white"/>
<path fill-rule="evenodd" clip-rule="evenodd" d="M309.578 60.8426C308.357 60.8923 307.139 60.6885 306.001 60.244C304.863 59.7994 303.829 59.1239 302.965 58.2599C302.101 57.3959 301.425 56.3622 300.981 55.2241C300.536 54.0859 300.333 52.868 300.382 51.6472C300.382 49.1901 301.358 46.8337 303.096 45.0963C304.833 43.3589 307.19 42.3828 309.647 42.3828C312.104 42.3828 314.46 43.3589 316.198 45.0963C317.935 46.8337 318.911 49.1901 318.911 51.6472C318.957 52.8749 318.747 54.0988 318.296 55.2414C317.844 56.3839 317.16 57.4202 316.287 58.2847C315.414 59.1491 314.371 59.8228 313.224 60.2631C312.077 60.7034 310.851 60.9007 309.624 60.8426H309.578ZM309.654 57.3483C310.378 57.3439 311.094 57.1909 311.756 56.8988C312.418 56.6067 313.014 56.1816 313.505 55.65C313.996 55.1184 314.373 54.4915 314.613 53.8082C314.852 53.125 314.948 52.3999 314.896 51.6778C314.934 50.9565 314.826 50.2348 314.576 49.5568C314.327 48.8788 313.942 48.2587 313.445 47.7343C312.948 47.21 312.35 46.7924 311.686 46.507C311.023 46.2216 310.308 46.0744 309.585 46.0744C308.863 46.0744 308.148 46.2216 307.485 46.507C306.821 46.7924 306.222 47.21 305.725 47.7343C305.228 48.2587 304.844 48.8788 304.594 49.5568C304.345 50.2348 304.236 50.9565 304.275 51.6778C304.217 52.406 304.312 53.1382 304.554 53.8277C304.795 54.5172 305.177 55.1489 305.676 55.6824C306.175 56.216 306.779 56.6397 307.451 56.9265C308.123 57.2133 308.847 57.357 309.578 57.3483H309.654Z" fill="white"/>
<path fill-rule="evenodd" clip-rule="evenodd" d="M332.565 42.5125C337.73 42.5125 340.489 46.8343 340.489 51.6312C340.489 57.2711 336.412 60.9186 331.722 60.704C330.154 60.6113 328.632 60.1323 327.293 59.3094V69.5316H323.37V48.5814C323.37 46.5431 323.554 45.5163 321.516 45.5163V42.7883C324.427 42.206 326.65 42.681 326.65 45.7768C327.198 44.705 328.054 43.8215 329.108 43.2398C330.162 42.6581 331.366 42.4048 332.565 42.5125ZM327.217 55.8151C328.508 56.7747 330.083 57.2763 331.692 57.2404C334.343 57.1332 336.489 55.2021 336.489 51.6312C336.489 48.7347 334.956 46.0374 331.768 46.0374C331.141 46.0362 330.519 46.1637 329.943 46.4118C329.366 46.6599 328.847 47.0234 328.416 47.48C327.985 47.9366 327.652 48.4766 327.438 49.0666C327.224 49.6567 327.133 50.2844 327.171 50.9109L327.217 55.8151Z" fill="white"/>
<path fill-rule="evenodd" clip-rule="evenodd" d="M348.505 60.4746V46.4363H342.865V42.9727H358.038V46.4363H352.367V60.4746H348.505Z" fill="white"/>
<path fill-rule="evenodd" clip-rule="evenodd" d="M107.784 82.2066C114.355 82.2064 120.659 84.8028 125.324 89.4303C129.989 94.0577 132.636 100.341 132.689 106.912C132.696 107.039 132.696 107.167 132.689 107.295V132.046H108.443H107.692C101.192 131.884 95.0127 129.189 90.4724 124.535C85.9321 119.88 83.3908 113.636 83.3908 107.134C83.3908 100.632 85.9321 94.3872 90.4724 89.7328C95.0127 85.0785 101.192 82.3831 107.692 82.2219L107.784 82.2066ZM107.784 74.2832C99.0738 74.2832 90.7201 77.7434 84.5609 83.9027C78.4016 90.0619 74.9414 98.4156 74.9414 107.126C74.9414 115.837 78.4016 124.19 84.5609 130.35C90.7201 136.509 99.0738 139.969 107.784 139.969H108.52H140.704L140.612 106.82C140.539 98.1625 137.048 89.885 130.899 83.7906C124.75 77.6962 116.442 74.2789 107.784 74.2832Z" fill="#285474"/>
<path fill-rule="evenodd" clip-rule="evenodd" d="M32.9502 82.2066C39.4503 82.3678 45.6299 85.0632 50.1702 89.7175C54.7104 94.3718 57.2518 100.616 57.2518 107.118C57.2518 113.621 54.7104 119.865 50.1702 124.519C45.6299 129.174 39.4503 131.869 32.9502 132.03H32.1839H7.9387L8.03065 107.279C8.03864 107.152 8.03864 107.024 8.03065 106.896C8.09524 100.328 10.7487 94.0512 15.4146 89.4283C20.0805 84.8055 26.382 82.2103 32.9502 82.2066ZM32.9502 74.2832C24.2849 74.2749 15.968 77.6946 9.81491 83.796C3.6618 89.8975 0.172033 98.1852 0.10728 106.85L0 140H32.1839H32.9195C37.2325 140 41.5033 139.15 45.488 137.5C49.4727 135.849 53.0932 133.43 56.143 130.38C59.1927 127.33 61.6119 123.71 63.2624 119.725C64.9129 115.741 65.7625 111.47 65.7625 107.157C65.7625 102.844 64.9129 98.573 63.2624 94.5883C61.6119 90.6036 59.1927 86.9831 56.143 83.9333C53.0932 80.8836 49.4727 78.4644 45.488 76.8139C41.5033 75.1634 37.2325 74.3139 32.9195 74.3139L32.9502 74.2832Z" fill="#5FCCCD"/>
<path fill-rule="evenodd" clip-rule="evenodd" d="M132.782 7.9387V32.705C132.79 32.8275 132.79 32.9503 132.782 33.0728C132.746 37.9902 131.255 42.7868 128.499 46.8589C125.742 50.931 121.842 54.0964 117.29 55.9566C112.738 57.8168 107.737 58.2886 102.917 57.3126C98.0976 56.3366 93.6744 53.9564 90.2047 50.4718C86.735 46.9871 84.3738 42.5538 83.4184 37.73C82.4631 32.9062 82.9563 27.9076 84.8359 23.3635C86.7156 18.8195 89.8977 14.9331 93.9815 12.1938C98.0654 9.45443 102.868 7.9846 107.786 7.96935H108.537H132.782V7.9387ZM140.736 0H108.552H107.817C101.332 0.000204038 94.9925 1.92001 89.5973 5.51745C84.2021 9.11489 79.9926 14.2289 77.4993 20.215C75.0061 26.2011 74.3406 32.7913 75.5869 39.155C76.8332 45.5187 79.9354 51.3711 84.5025 55.9744C89.0697 60.5778 94.8973 63.7262 101.251 65.0227C107.605 66.3192 114.2 65.7059 120.205 63.26C126.211 60.8141 131.358 56.6451 134.998 51.2785C138.638 45.9119 140.608 39.5878 140.659 33.1035L140.736 0Z" fill="#4CB934"/>
<path fill-rule="evenodd" clip-rule="evenodd" d="M7.95402 7.9387L32.1839 7.96935H32.9349C37.8628 7.96357 42.6818 9.41996 46.7817 12.1542C50.8816 14.8884 54.0781 18.7774 55.9668 23.3292C57.8554 27.8809 58.3511 32.8906 57.3913 37.7242C56.4315 42.5578 54.0592 46.998 50.5747 50.4828C47.1046 53.9589 42.6841 56.3313 37.8692 57.3015C33.0543 58.2718 28.06 57.7967 23.5145 55.9359C18.9689 54.0751 15.0751 50.9117 12.3227 46.8436C9.57036 42.7755 8.0824 37.9844 8.04598 33.0728C8.05361 32.9503 8.05361 32.8275 8.04598 32.705V7.9387H7.95402ZM0 0L0.091954 33.1494C0.149435 39.6355 2.12528 45.9594 5.77056 51.3245C9.41584 56.6895 14.5675 60.8557 20.5763 63.2981C26.5852 65.7404 33.1826 66.3498 39.5372 65.0492C45.8917 63.7487 51.7192 60.5965 56.2854 55.9898C60.8517 51.3831 63.9523 45.528 65.1967 39.1622C66.4412 32.7964 65.7737 26.2047 63.2784 20.2176C60.7831 14.2305 56.5716 9.11583 51.1746 5.51803C45.7776 1.92023 39.4365 0.000254702 32.9502 0L32.1839 0H0Z" fill="#3386A1"/>
</svg>
