<svg width="24" height="24" viewBox="0 0 24 24" fill="none" xmlns="http://www.w3.org/2000/svg">
<path fill-rule="evenodd" clip-rule="evenodd" d="M12 2C6.4775 2 2 6.4775 2 12C2 17.5225 6.4775 22 12 22C17.5225 22 22 17.5225 22 12C22 6.4775 17.5225 2 12 2ZM16.635 8.80083C16.485 10.3817 15.8333 14.2192 15.5025 15.99C15.3625 16.74 15.0858 16.9908 14.8192 17.015C14.2383 17.0683 13.7975 16.6308 13.235 16.2625C12.355 15.6858 11.8575 15.3267 11.0033 14.7633C10.0158 14.1125 10.6558 13.755 11.2183 13.1708C11.3658 13.0175 13.9242 10.69 13.9742 10.4792C13.98 10.4525 13.9867 10.3542 13.9275 10.3025C13.8683 10.2508 13.7825 10.2683 13.7208 10.2825C13.6325 10.3025 12.2267 11.2317 9.5025 13.07C9.10333 13.3442 8.74167 13.4775 8.4175 13.4708C8.06083 13.4633 7.37417 13.2692 6.86333 13.1025C6.2375 12.8992 5.73917 12.7908 5.7825 12.4458C5.805 12.2658 6.0525 12.0817 6.52583 11.8933C9.44083 10.6233 11.385 9.78583 12.3575 9.38083C15.135 8.22583 15.7117 8.025 16.0883 8.01833C16.56 8.01167 16.6733 8.40083 16.635 8.80083Z" fill="white"/>
</svg>
