<svg width="160" height="48" viewBox="0 0 160 48" fill="none" xmlns="http://www.w3.org/2000/svg">
<path fill-rule="evenodd" clip-rule="evenodd" d="M65 31.0638V29H75V31.0638H71.094V43H68.8979V31.0638H65Z" fill="white"/>
<path fill-rule="evenodd" clip-rule="evenodd" d="M77.1924 42.9901C75.5697 42.9901 74.0014 41.8774 74.0014 40.0118C73.947 37.7278 75.4999 36.6653 77.4487 36.6653C78.3695 36.6644 79.2763 36.9087 80.0885 37.3764V36.3976C80.0885 33.8877 76.0899 34.7244 74.9797 35.31L74.6846 33.7539C75.7128 33.2398 76.8355 32.9824 77.9689 33.0009C80.1273 33.0009 82.0373 33.8375 82.0373 36.4562V40.2293C82.0373 41.1245 82.0372 41.7017 82.9612 41.6013L83 42.8312C81.5947 43.0905 80.5077 43.0905 80.4534 41.2081C80.1111 41.7961 79.6268 42.2726 79.0523 42.5866C78.4778 42.9005 77.8349 43.04 77.1924 42.9901ZM80.0885 38.7401C79.3802 38.302 78.5758 38.0767 77.7592 38.0875C77.5279 38.0666 77.295 38.0979 77.0756 38.1794C76.8561 38.2609 76.6548 38.3908 76.4846 38.5609C76.3143 38.7309 76.1789 38.9374 76.0868 39.167C75.9948 39.3967 75.9483 39.6445 75.9502 39.8946C75.9502 40.8484 76.7654 41.2834 77.5729 41.2834C78.6288 41.2834 79.8633 40.748 80.0652 39.5349L80.0885 38.7401Z" fill="white"/>
<path fill-rule="evenodd" clip-rule="evenodd" d="M91.4862 40.2063V33H93.5302V40.2063H96.9805V33H99V42H86V33H88.0358V40.2063H91.4862Z" fill="white"/>
<path fill-rule="evenodd" clip-rule="evenodd" d="M104.147 36.5937C106.538 36.5937 107.385 35.1657 107.385 33H109.435C109.435 34.9616 108.921 36.6879 106.945 37.551L110 41.796V42H107.75L105.085 38.2023C104.755 38.2693 104.418 38.3009 104.08 38.2964H103.134V42H101V33.0235H103.134V36.5937H104.147Z" fill="white"/>
<path fill-rule="evenodd" clip-rule="evenodd" d="M119.848 38.3715H113.049C113.049 40.1172 114.37 41.1529 116.054 41.1529C117.201 41.2308 118.349 41.0246 119.405 40.5515L119.67 42.1635C118.577 42.684 117.393 42.9682 116.191 42.9988C113.146 43.0572 110.906 41.036 111.003 37.8036C110.985 37.1546 111.098 36.5088 111.334 35.9075C111.57 35.3062 111.925 34.7627 112.375 34.3115C112.825 33.8603 113.361 33.5115 113.949 33.2873C114.537 33.063 115.163 32.9684 115.788 33.0093C119.01 33.0093 120.476 35.2227 119.864 38.3966L119.848 38.3715ZM113.049 36.843H118.14C118.196 35.3981 117.044 34.6464 115.723 34.6464C115.091 34.5884 114.462 34.7838 113.964 35.1924C113.467 35.601 113.139 36.1917 113.049 36.843Z" fill="white"/>
<path fill-rule="evenodd" clip-rule="evenodd" d="M130 33V42H128.087V38.2238H123.89V42H122V33H123.89V36.4537H128.087V33H130Z" fill="white"/>
<path fill-rule="evenodd" clip-rule="evenodd" d="M135.974 42V34.7748H133V33H141V34.7748H138.01V42H135.974Z" fill="white"/>
<path fill-rule="evenodd" clip-rule="evenodd" d="M144.212 42.9898C142.579 42.9898 141.001 41.8771 141.001 40.0115C140.947 37.7276 142.509 36.6652 144.47 36.6652C145.396 36.6643 146.308 36.9086 147.125 37.3763V36.3975C147.125 33.8877 143.103 34.7243 141.986 35.3099L141.673 33.7539C142.708 33.2398 143.837 32.9824 144.977 33.0009C147.149 33.0009 149.07 33.8375 149.07 36.456V40.229C149.07 41.1242 149.07 41.7014 150 41.601V42.8308C148.594 43.0902 147.493 43.0902 147.438 41.2078C147.094 41.7965 146.607 42.2735 146.029 42.5875C145.451 42.9015 144.804 43.0406 144.157 42.9898H144.212ZM147.141 38.7399C146.428 38.3018 145.619 38.0765 144.798 38.0874C144.565 38.0664 144.331 38.0977 144.11 38.1792C143.889 38.2607 143.687 38.3906 143.515 38.5607C143.344 38.7307 143.208 38.9372 143.115 39.1668C143.023 39.3965 142.976 39.6443 142.978 39.8944C142.978 40.8481 143.759 41.2831 144.61 41.2831C145.673 41.2831 146.915 40.7477 147.118 39.5347L147.141 38.7399Z" fill="white"/>
<path fill-rule="evenodd" clip-rule="evenodd" d="M65 6.90854V5H75V6.90854H71.094V18H68.8979V6.90854H65Z" fill="white"/>
<path fill-rule="evenodd" clip-rule="evenodd" d="M80.834 9.03948C83.5496 9.03948 85 11.2725 85 13.7511C85 16.6651 82.8646 18.5497 80.3908 18.4389C79.5662 18.39 78.7664 18.1425 78.062 17.7183V23H75.975V12.1753C75.975 11.1221 76.0717 10.5915 75 10.5915V9.18201C76.531 8.88111 77.6994 9.12658 77.6994 10.7261C77.9872 10.1598 78.4435 9.69288 79.0077 9.38738C79.5719 9.08188 80.2173 8.95226 80.8582 9.01572L80.834 9.03948ZM78.0218 15.9128C78.7009 16.4087 79.5289 16.6678 80.3747 16.6493C81.7687 16.5938 82.8969 15.5961 82.8969 13.7511C82.8969 12.2544 82.0911 10.8608 80.415 10.8608C80.0849 10.8602 79.7583 10.926 79.4551 11.0542C79.152 11.1824 78.8787 11.3703 78.6522 11.6062C78.4258 11.8421 78.2508 12.1211 78.1382 12.426C78.0256 12.7308 77.9778 13.0551 77.9976 13.3789L78.0218 15.9128Z" fill="white"/>
<path fill-rule="evenodd" clip-rule="evenodd" d="M89.1924 17.9914C87.5697 17.9914 86.0014 16.99 86.0014 15.3108C85.947 13.2552 87.4999 12.2989 89.4487 12.2989C90.3701 12.3007 91.2769 12.5232 92.0885 12.9465V12.0579C92.0885 9.799 88.0899 10.552 86.9797 11.0715L86.6846 9.67852C87.7128 9.21581 88.8355 8.98416 89.9689 9.00084C92.1273 9.00084 94.0373 9.75382 94.0373 12.1106V15.5066C94.0373 16.3123 94.0373 16.8318 94.9612 16.7415L95 17.8484C93.6025 18.0818 92.5077 18.0818 92.4534 16.38C92.1121 16.9107 91.6282 17.341 91.0537 17.6249C90.4791 17.9089 89.8357 18.0355 89.1924 17.9914ZM92.0885 14.1663C91.3817 13.7685 90.5763 13.5654 89.7592 13.579C89.5298 13.5634 89.2994 13.594 89.0827 13.6688C88.866 13.7436 88.6676 13.8611 88.5 14.0138C88.3323 14.1665 88.199 14.3512 88.1084 14.5563C88.0178 14.7613 87.9718 14.9823 87.9735 15.2054C87.9735 16.0638 88.7887 16.4553 89.5962 16.4553C90.6521 16.4553 91.9254 15.9734 92.0885 14.8816V14.1663Z" fill="white"/>
<path fill-rule="evenodd" clip-rule="evenodd" d="M105 9V18H103.089V14.2271H98.8957V18H97V9H98.8957V12.4585H103.089V9H105Z" fill="white"/>
<path fill-rule="evenodd" clip-rule="evenodd" d="M115.055 12.4708C114.856 11.9948 114.527 11.5947 114.112 11.323C113.697 11.0512 113.216 10.9205 112.73 10.9479C112.357 10.944 111.987 11.0221 111.643 11.1775C111.299 11.3329 110.988 11.5622 110.73 11.8514C110.472 12.1406 110.271 12.4836 110.141 12.8591C110.01 13.2347 109.953 13.6349 109.972 14.0352C109.947 14.4338 110 14.8335 110.126 15.2094C110.251 15.5853 110.448 15.9292 110.703 16.2198C110.959 16.5103 111.267 16.7412 111.609 16.8979C111.951 17.0547 112.32 17.134 112.692 17.1308C113.209 17.1455 113.717 16.9867 114.147 16.6765C114.576 16.3662 114.904 15.92 115.086 15.3999H117C116.79 16.4553 116.237 17.3962 115.441 18.0546C114.645 18.7131 113.657 19.0463 112.653 18.9948C112.036 19.0218 111.42 18.9111 110.844 18.6698C110.269 18.4284 109.746 18.0616 109.31 17.5925C108.873 17.1233 108.531 16.5621 108.306 15.9441C108.082 15.3261 107.979 14.6648 108.004 14.0019C107.987 13.3412 108.095 12.6838 108.323 12.0697C108.55 11.4556 108.892 10.8979 109.327 10.4305C109.763 9.96318 110.282 9.59608 110.854 9.35166C111.426 9.10724 112.038 8.99065 112.653 9.00901C113.634 8.94198 114.605 9.2505 115.393 9.87974C116.182 10.509 116.738 11.4182 116.961 12.4458L115.055 12.4708Z" fill="white"/>
<path fill-rule="evenodd" clip-rule="evenodd" d="M127 9V18H125.048V10.7921H120.99V18H119V9H127Z" fill="white"/>
<path fill-rule="evenodd" clip-rule="evenodd" d="M134.963 18.9946C134.305 19.0215 133.648 18.9112 133.034 18.6705C132.42 18.4298 131.863 18.0641 131.397 17.5963C130.931 17.1285 130.567 16.5688 130.327 15.9526C130.087 15.3364 129.977 14.677 130.004 14.016C130.004 12.6857 130.53 11.4098 131.467 10.4691C132.404 9.52847 133.675 9 135 9C136.325 9 137.596 9.52847 138.533 10.4691C139.47 11.4098 139.997 12.6857 139.997 14.016C140.021 14.6807 139.908 15.3434 139.665 15.962C139.421 16.5806 139.052 17.1417 138.581 17.6097C138.111 18.0777 137.548 18.4425 136.929 18.6809C136.311 18.9193 135.65 19.0261 134.988 18.9946H134.963ZM135.004 17.1027C135.395 17.1004 135.781 17.0175 136.138 16.8593C136.495 16.7012 136.816 16.471 137.081 16.1832C137.346 15.8954 137.549 15.556 137.678 15.186C137.807 14.8161 137.859 14.4235 137.831 14.0326C137.852 13.642 137.793 13.2513 137.659 12.8842C137.525 12.5171 137.317 12.1814 137.049 11.8975C136.781 11.6136 136.458 11.3875 136.1 11.2329C135.742 11.0784 135.357 10.9987 134.967 10.9987C134.578 10.9987 134.192 11.0784 133.834 11.2329C133.476 11.3875 133.154 11.6136 132.886 11.8975C132.618 12.1814 132.41 12.5171 132.275 12.8842C132.141 13.2513 132.082 13.642 132.103 14.0326C132.072 14.4268 132.123 14.8233 132.254 15.1966C132.384 15.5699 132.59 15.9119 132.859 16.2008C133.128 16.4896 133.454 16.719 133.816 16.8743C134.179 17.0296 134.569 17.1074 134.963 17.1027H135.004Z" fill="white"/>
<path fill-rule="evenodd" clip-rule="evenodd" d="M146.824 9.01252C149.546 9.01252 151 11.2499 151 13.7332C151 16.6529 148.851 18.5411 146.38 18.4301C145.553 18.3821 144.751 18.1341 144.045 17.7081V23H141.977V12.1543C141.977 11.0991 142.074 10.5676 141 10.5676V9.15533C142.535 8.85384 143.706 9.09979 143.706 10.7024C143.995 10.1475 144.446 9.69017 145.002 9.38904C145.557 9.08792 146.192 8.9568 146.824 9.01252ZM144.005 15.8992C144.686 16.3959 145.516 16.6556 146.363 16.637C147.761 16.5815 148.892 15.5818 148.892 13.7332C148.892 12.2337 148.084 10.8373 146.404 10.8373C146.073 10.8367 145.746 10.9027 145.442 11.0311C145.138 11.1596 144.864 11.3478 144.637 11.5842C144.41 11.8205 144.234 12.1001 144.122 12.4055C144.009 12.711 143.961 13.0359 143.981 13.3603L144.005 15.8992Z" fill="white"/>
<path fill-rule="evenodd" clip-rule="evenodd" d="M154.974 18V10.7811H152V9H160V10.7811H157.01V18H154.974Z" fill="white"/>
<path fill-rule="evenodd" clip-rule="evenodd" d="M37.4866 28.7744C39.7846 28.7743 41.9896 29.6835 43.6211 31.3038C45.2525 32.9241 46.1783 35.1242 46.1967 37.4249C46.1993 37.4696 46.1993 37.5143 46.1967 37.559V46.2256H37.7171H37.4544C35.1811 46.1692 33.0198 45.2254 31.4319 43.5956C29.8439 41.9659 28.9551 39.7794 28.9551 37.5027C28.9551 35.226 29.8439 33.0394 31.4319 31.4097C33.0198 29.78 35.1811 28.8362 37.4544 28.7797L37.4866 28.7744ZM37.4866 26C34.4402 26 31.5185 27.2116 29.3643 29.3683C27.2102 31.5249 26 34.45 26 37.5C26 40.55 27.2102 43.4751 29.3643 45.6317C31.5185 47.7884 34.4402 49 37.4866 49H37.7439H49L48.9678 37.3927C48.9424 34.3614 47.7214 31.463 45.5708 29.329C43.4203 27.1951 40.5145 25.9985 37.4866 26Z" fill="white"/>
<path fill-rule="evenodd" clip-rule="evenodd" d="M11.5241 28.7731C13.7975 28.8295 15.9588 29.7729 17.5467 31.4018C19.1346 33.0308 20.0235 35.2163 20.0235 37.492C20.0235 39.7676 19.1346 41.9531 17.5467 43.5821C15.9588 45.211 13.7975 46.1544 11.5241 46.2108H11.2561H2.77651L2.80867 37.5483C2.81146 37.5036 2.81146 37.4588 2.80867 37.4142C2.83126 35.1155 3.75929 32.9186 5.39116 31.3006C7.02303 29.6827 9.22693 28.7744 11.5241 28.7731ZM11.5241 26C8.49347 25.9971 5.58471 27.194 3.4327 29.3294C1.28069 31.4648 0.0601675 34.3654 0.0375204 37.3981L0 49H11.2561H11.5134C13.0218 49 14.5155 48.7027 15.9091 48.125C17.3028 47.5474 18.569 46.7007 19.6357 45.6333C20.7023 44.5659 21.5484 43.2988 22.1256 41.9042C22.7029 40.5096 23 39.0149 23 37.5054C23 35.9959 22.7029 34.5012 22.1256 33.1066C21.5484 31.712 20.7023 30.4448 19.6357 29.3774C18.569 28.3101 17.3028 27.4634 15.9091 26.8857C14.5155 26.308 13.0218 26.0107 11.5134 26.0107L11.5241 26Z" fill="white"/>
<path fill-rule="evenodd" clip-rule="evenodd" d="M46.2181 2.77975V11.4517C46.2208 11.4946 46.2208 11.5376 46.2181 11.5805C46.2054 13.3023 45.6841 14.9819 44.7199 16.4077C43.7558 17.8336 42.3917 18.9419 40.7997 19.5933C39.2076 20.2446 37.4586 20.4098 35.7729 20.0681C34.0872 19.7263 32.5402 18.8929 31.3267 17.6728C30.1132 16.4526 29.2873 14.9003 28.9532 13.2112C28.6191 11.5222 28.7916 9.77189 29.449 8.18078C30.1064 6.58967 31.2193 5.22885 32.6476 4.26967C34.076 3.31048 35.7558 2.79582 37.4757 2.79048H37.7383H46.2181V2.77975ZM49 0H37.7437H37.4864C35.2184 7.14444e-05 33.0012 0.672295 31.1143 1.93194C29.2273 3.19159 27.755 4.98229 26.883 7.07833C26.011 9.17437 25.7783 11.4819 26.2141 13.7102C26.65 15.9385 27.735 17.9877 29.3324 19.5995C30.9297 21.2114 32.9679 22.3138 35.1901 22.7678C37.4123 23.2218 39.719 23.007 41.8195 22.1506C43.9199 21.2941 45.7201 19.8344 46.9932 17.9552C48.2663 16.0761 48.9552 13.8617 48.9732 11.5912L49 0Z" fill="white"/>
<path fill-rule="evenodd" clip-rule="evenodd" d="M2.77998 2.77845L11.2485 2.78918H11.5109C13.2333 2.78716 14.9175 3.29687 16.3505 4.25381C17.7834 5.21075 18.9006 6.57188 19.5607 8.16493C20.2208 9.75798 20.3941 11.5113 20.0586 13.203C19.7231 14.8947 18.894 16.4487 17.6762 17.6684C16.4634 18.885 14.9184 19.7153 13.2355 20.0549C11.5527 20.3945 9.80715 20.2282 8.21844 19.5769C6.62974 18.9256 5.26883 17.8185 4.30686 16.3947C3.3449 14.9709 2.82485 13.2941 2.81212 11.5751C2.81478 11.5322 2.81478 11.4892 2.81212 11.4464V2.77845H2.77998ZM0 0L0.0321385 11.6019C0.0522285 13.8719 0.7428 16.0852 2.01685 17.963C3.29089 19.8407 5.09141 21.2988 7.19156 22.1536C9.2917 23.0084 11.5975 23.2216 13.8185 22.7665C16.0394 22.3113 18.0762 21.2081 19.6721 19.5958C21.268 17.9835 22.3517 15.9343 22.7867 13.7063C23.2216 11.4784 22.9883 9.17134 22.1162 7.07592C21.2441 4.9805 19.7721 3.19043 17.8858 1.93125C15.9996 0.672059 13.7833 8.91428e-05 11.5163 0L11.2485 0H0Z" fill="white"/>
</svg>
