<svg width="24" height="24" viewBox="0 0 24 24" fill="none" xmlns="http://www.w3.org/2000/svg">
<path d="M22.5398 6.34209C22.2868 5.42033 21.5416 4.69375 20.5947 4.44713C18.8796 4 12 4 12 4C12 4 5.12042 4 3.40442 4.44713C2.45842 4.69375 1.71317 5.41945 1.46017 6.34209C1 8.01348 1 11.5 1 11.5C1 11.5 1 14.9865 1.46017 16.6579C1.71317 17.5797 2.45842 18.3062 3.40533 18.5529C5.12042 19 12 19 12 19C12 19 18.8796 19 20.5956 18.5529C21.5416 18.3062 22.2868 17.5806 22.5408 16.6579C23 14.9865 23 11.5 23 11.5C23 11.5 23 8.01348 22.5398 6.34209ZM9.7505 14.6663V8.33375L15.4998 11.5L9.7505 14.6663Z" fill="white"/>
</svg>
